<svg width="400" height="400" viewBox="0 0 400 400" fill="none" xmlns="http://www.w3.org/2000/svg">
    <rect width="400" height="400" rx="51.5464" fill="#00A89D"/>
    <path d="M249.285 81.3521L244.459 79.1015C227.931 71.3947 208.286 78.5451 200.579 95.0725L148.116 207.579C147.089 209.782 148.042 212.402 150.246 213.429L155.072 215.68C171.599 223.387 191.245 216.236 198.952 199.709L251.414 87.2028C252.442 84.9991 251.489 82.3797 249.285 81.3521Z" fill="#F4A01E"/>
    <path d="M174.443 81.3521L169.616 79.1015C153.089 71.3947 133.443 78.5451 125.736 95.0725L73.2739 207.579C72.2463 209.782 73.1997 212.402 75.4033 213.429L80.2298 215.68C96.7571 223.387 116.403 216.236 124.11 199.709L176.572 87.2028C177.6 84.9991 176.646 82.3797 174.443 81.3521Z" fill="#F2F4F2"/>
    <path d="M324.121 81.3521L319.294 79.1015C302.767 71.3947 283.121 78.5451 275.414 95.0725L222.952 207.579C221.924 209.782 222.878 212.402 225.081 213.429L229.908 215.68C246.435 223.387 266.081 216.236 273.788 199.709L326.25 87.2028C327.278 84.9991 326.324 82.3797 324.121 81.3521Z" fill="#F2F4F2"/>
    <path d="M97.6945 297.682C96.6459 297.682 95.6877 297.424 94.82 296.909C93.9523 296.394 93.2651 295.648 92.7591 294.672C92.2529 293.696 92 292.521 92 291.147C92 289.104 92.5735 287.513 93.7219 286.374C94.8697 285.235 96.4106 284.666 98.3453 284.666C99.7731 284.666 100.935 284.951 101.83 285.52C102.725 286.089 103.172 286.808 103.172 287.676V297.682H99.6469V287.676C99.5202 287.64 99.3392 287.608 99.1044 287.581C98.8694 287.554 98.6165 287.54 98.3453 287.54C97.405 287.54 96.6999 287.821 96.2301 288.381C95.7599 288.941 95.5251 289.863 95.5251 291.147C95.5251 292.304 95.7374 293.203 96.1624 293.845C96.587 294.487 97.2152 294.807 98.047 294.807H104.88V297.682H97.6945ZM95.4439 282.768C94.9734 282.768 94.5625 282.596 94.2101 282.252C93.8574 281.909 93.6811 281.493 93.6811 281.005C93.6811 280.517 93.8574 280.101 94.2101 279.758C94.5625 279.414 94.9734 279.243 95.4439 279.243C95.9318 279.243 96.3475 279.414 96.6911 279.758C97.0343 280.101 97.2064 280.517 97.2064 281.005C97.2064 281.493 97.0343 281.909 96.6911 282.252C96.3475 282.596 95.9318 282.768 95.4439 282.768ZM99.8366 282.768C99.3664 282.768 98.9555 282.596 98.6028 282.252C98.2504 281.909 98.0741 281.493 98.0741 281.005C98.0741 280.517 98.2504 280.101 98.6028 279.758C98.9555 279.414 99.3664 279.243 99.8366 279.243C100.343 279.243 100.763 279.414 101.098 279.758C101.432 280.101 101.599 280.517 101.599 281.005C101.599 281.493 101.432 281.909 101.098 282.252C100.763 282.596 100.343 282.768 99.8366 282.768ZM104.88 297.682V294.807C105.079 294.807 105.219 294.939 105.301 295.2C105.382 295.463 105.423 295.811 105.423 296.245C105.423 296.678 105.382 297.027 105.301 297.289C105.219 297.551 105.079 297.682 104.88 297.682Z" fill="#F2F4F2"/>
    <path d="M104.881 297.684C104.701 297.684 104.565 297.553 104.475 297.291C104.384 297.029 104.339 296.681 104.339 296.247C104.339 295.813 104.384 295.465 104.475 295.203C104.565 294.941 104.701 294.81 104.881 294.81V297.684ZM104.881 297.684V294.81H106.264C106.68 294.81 107.019 294.693 107.281 294.457C107.543 294.223 107.737 293.92 107.864 293.549C107.99 293.179 108.054 292.813 108.054 292.451V286.458C108.054 286.042 108.18 285.64 108.433 285.251C108.687 284.863 109.147 284.668 109.816 284.668C110.485 284.668 110.946 284.863 111.199 285.251C111.452 285.64 111.579 286.042 111.579 286.458V292.451C111.579 293.445 111.349 294.34 110.888 295.135C110.427 295.931 109.798 296.555 109.003 297.006C108.207 297.458 107.295 297.684 106.264 297.684H104.881ZM107.62 303.514C107.15 303.514 106.739 303.342 106.386 302.999C106.034 302.655 105.857 302.24 105.857 301.752C105.857 301.264 106.034 300.848 106.386 300.504C106.739 300.161 107.15 299.989 107.62 299.989C108.108 299.989 108.524 300.161 108.867 300.504C109.211 300.848 109.383 301.264 109.383 301.752C109.383 302.24 109.211 302.655 108.867 302.999C108.524 303.342 108.108 303.514 107.62 303.514ZM113.369 297.684C112.356 297.684 111.448 297.458 110.644 297.006C109.839 296.555 109.206 295.931 108.745 295.135C108.284 294.34 108.054 293.445 108.054 292.451H111.579C111.579 292.813 111.642 293.179 111.769 293.549C111.895 293.92 112.094 294.223 112.365 294.457C112.637 294.693 112.971 294.81 113.369 294.81H114.752V297.684H113.369ZM112.013 303.514C111.543 303.514 111.132 303.342 110.779 302.999C110.427 302.655 110.25 302.24 110.25 301.752C110.25 301.264 110.427 300.848 110.779 300.504C111.132 300.161 111.543 299.989 112.013 299.989C112.519 299.989 112.939 300.161 113.274 300.504C113.608 300.848 113.776 301.264 113.776 301.752C113.776 302.24 113.608 302.655 113.274 302.999C112.939 303.342 112.519 303.514 112.013 303.514ZM114.752 297.684V294.81C114.95 294.81 115.091 294.941 115.172 295.203C115.253 295.465 115.294 295.813 115.294 296.247C115.294 296.681 115.253 297.029 115.172 297.291C115.091 297.553 114.95 297.684 114.752 297.684Z" fill="#F2F4F2"/>
    <path d="M114.75 297.683C114.569 297.683 114.434 297.552 114.343 297.29C114.253 297.028 114.207 296.68 114.207 296.246C114.207 295.812 114.253 295.464 114.343 295.202C114.434 294.94 114.569 294.809 114.75 294.809V297.683ZM114.75 297.683V294.809H122.125C122.74 294.809 123.21 294.619 123.535 294.239C123.861 293.86 124.024 293.309 124.024 292.585V287.677C123.897 287.641 123.716 287.609 123.481 287.582C123.246 287.555 122.993 287.542 122.722 287.542C121.782 287.542 121.077 287.822 120.607 288.382C120.137 288.943 119.902 289.865 119.902 291.148C119.902 292.305 120.114 293.182 120.539 293.778C120.964 294.375 121.592 294.719 122.424 294.809L122.071 297.656C121.023 297.548 120.069 297.245 119.21 296.748C118.352 296.251 117.665 295.537 117.15 294.606C116.634 293.675 116.377 292.522 116.377 291.148C116.377 289.106 116.95 287.515 118.099 286.376C119.246 285.237 120.787 284.667 122.722 284.667C124.15 284.667 125.312 284.952 126.207 285.521C127.101 286.091 127.549 286.809 127.549 287.677V292.585C127.549 293.562 127.318 294.434 126.857 295.202C126.396 295.971 125.759 296.576 124.946 297.019C124.132 297.462 123.192 297.683 122.125 297.683H114.75ZM122.749 282.905C122.188 282.905 121.714 282.711 121.325 282.322C120.937 281.933 120.742 281.477 120.742 280.952C120.742 280.41 120.937 279.949 121.325 279.569C121.714 279.19 122.188 279 122.749 279C123.273 279 123.729 279.19 124.119 279.569C124.507 279.949 124.702 280.41 124.702 280.952C124.702 281.477 124.507 281.933 124.119 282.322C123.729 282.711 123.273 282.905 122.749 282.905Z" fill="#F2F4F2"/>
    <path d="M133.679 297.682C133.01 297.682 132.549 297.488 132.296 297.099C132.043 296.711 131.916 296.29 131.916 295.838V283.771C131.916 283.12 131.835 282.651 131.672 282.361C131.509 282.072 131.328 281.882 131.13 281.792C130.931 281.702 130.777 281.629 130.669 281.575C130.669 281.431 130.737 281.214 130.872 280.924C131.008 280.635 131.234 280.373 131.55 280.138C131.866 279.903 132.296 279.785 132.838 279.785C133.362 279.785 133.819 279.926 134.208 280.206C134.596 280.486 134.899 280.87 135.116 281.358C135.333 281.846 135.441 282.407 135.441 283.039V295.892C135.441 296.308 135.315 296.711 135.062 297.099C134.808 297.488 134.347 297.682 133.679 297.682Z" fill="#F2F4F2"/>
    <path d="M139.399 303.894C138.947 303.894 138.568 303.794 138.261 303.596C137.953 303.396 137.722 303.166 137.569 302.904C137.415 302.642 137.339 302.42 137.339 302.24C137.718 301.95 138.043 301.625 138.315 301.264C138.586 300.902 138.798 300.436 138.952 299.867C139.105 299.298 139.182 298.57 139.182 297.684V286.349C139.182 285.825 139.349 285.414 139.684 285.116C140.018 284.817 140.439 284.668 140.945 284.668C141.469 284.668 141.894 284.817 142.219 285.116C142.545 285.414 142.708 285.825 142.708 286.349V297.684C142.708 298.48 142.64 299.248 142.504 299.989C142.369 300.73 142.169 301.394 141.908 301.982C141.645 302.57 141.306 303.035 140.891 303.379C140.475 303.722 139.978 303.894 139.399 303.894ZM142.708 297.684V294.81H145.501V297.684H142.708ZM145.501 297.684V294.81C145.699 294.81 145.839 294.941 145.921 295.203C146.002 295.465 146.043 295.813 146.043 296.247C146.043 296.681 146.002 297.029 145.921 297.291C145.839 297.553 145.699 297.684 145.501 297.684Z" fill="#F2F4F2"/>
    <path d="M145.503 297.682C145.322 297.682 145.187 297.551 145.096 297.289C145.006 297.027 144.96 296.678 144.96 296.245C144.96 295.811 145.006 295.463 145.096 295.2C145.187 294.939 145.322 294.807 145.503 294.807V297.682ZM145.503 297.682V294.807H146.886C147.301 294.807 147.64 294.69 147.902 294.455C148.164 294.22 148.359 293.917 148.485 293.547C148.612 293.176 148.675 292.81 148.675 292.448V286.456C148.675 286.04 148.801 285.638 149.055 285.249C149.308 284.86 149.769 284.666 150.438 284.666C151.106 284.666 151.567 284.86 151.821 285.249C152.074 285.638 152.2 286.04 152.2 286.456V292.448C152.2 293.443 151.97 294.337 151.509 295.133C151.048 295.928 150.42 296.552 149.624 297.004C148.829 297.456 147.916 297.682 146.886 297.682H145.503ZM148.241 282.768C147.771 282.768 147.36 282.596 147.008 282.252C146.655 281.909 146.479 281.493 146.479 281.005C146.479 280.517 146.655 280.101 147.008 279.758C147.36 279.414 147.771 279.243 148.241 279.243C148.73 279.243 149.145 279.414 149.489 279.758C149.832 280.101 150.004 280.517 150.004 281.005C150.004 281.493 149.832 281.909 149.489 282.252C149.145 282.596 148.73 282.768 148.241 282.768ZM153.99 297.682C152.978 297.682 152.069 297.456 151.265 297.004C150.46 296.552 149.828 295.928 149.367 295.133C148.906 294.337 148.675 293.443 148.675 292.448H152.2C152.2 292.81 152.263 293.176 152.39 293.547C152.517 293.917 152.716 294.22 152.987 294.455C153.258 294.69 153.592 294.807 153.99 294.807H155.373V297.682H153.99ZM152.634 282.768C152.164 282.768 151.753 282.596 151.4 282.252C151.048 281.909 150.872 281.493 150.872 281.005C150.872 280.517 151.048 280.101 151.4 279.758C151.753 279.414 152.164 279.243 152.634 279.243C153.14 279.243 153.561 279.414 153.895 279.758C154.229 280.101 154.397 280.517 154.397 281.005C154.397 281.493 154.229 281.909 153.895 282.252C153.561 282.596 153.14 282.768 152.634 282.768ZM155.373 297.682V294.807C155.572 294.807 155.712 294.939 155.793 295.2C155.875 295.463 155.915 295.811 155.915 296.245C155.915 296.678 155.875 297.027 155.793 297.289C155.712 297.551 155.572 297.682 155.373 297.682Z" fill="#F2F4F2"/>
    <path d="M155.372 297.682C155.191 297.682 155.056 297.551 154.965 297.289C154.875 297.027 154.829 296.678 154.829 296.245C154.829 295.811 154.875 295.463 154.965 295.201C155.056 294.939 155.191 294.808 155.372 294.808V297.682ZM155.372 297.682V294.808H163.914C164.492 294.808 164.935 294.6 165.242 294.184C165.549 293.768 165.703 293.054 165.703 292.042C165.703 290.541 165.342 289.416 164.619 288.666C163.895 287.916 162.802 287.54 161.338 287.54H160.497C160.153 287.54 159.81 287.545 159.467 287.554C159.123 287.563 158.833 287.567 158.599 287.567C158.002 287.567 157.514 287.428 157.134 287.147C156.755 286.867 156.47 286.501 156.28 286.049C156.09 285.597 155.996 285.136 155.996 284.666C155.996 284.286 156.072 284.02 156.226 283.866C156.379 283.713 156.529 283.645 156.673 283.663C156.764 283.952 156.99 284.201 157.351 284.408C157.713 284.616 158.255 284.72 158.978 284.72C159.159 284.72 159.412 284.716 159.738 284.707C160.063 284.698 160.384 284.689 160.7 284.679C161.016 284.671 161.229 284.666 161.338 284.666C162.748 284.666 163.95 284.869 164.944 285.276C165.938 285.683 166.751 286.239 167.385 286.944C168.017 287.649 168.483 288.44 168.781 289.317C169.079 290.193 169.229 291.102 169.229 292.042C169.229 293.397 168.966 294.491 168.442 295.323C167.918 296.154 167.249 296.756 166.435 297.126C165.622 297.497 164.781 297.682 163.914 297.682H155.372Z" fill="#F2F4F2"/>
    <path d="M173.648 297.682C173.341 297.682 173.047 297.565 172.767 297.33C172.487 297.095 172.347 296.733 172.347 296.245C172.347 295.757 172.487 295.396 172.767 295.16C173.047 294.925 173.359 294.808 173.703 294.808H182.38C182.795 294.808 183.134 294.69 183.397 294.455C183.659 294.221 183.853 293.918 183.98 293.547C184.106 293.177 184.17 292.811 184.17 292.449V283.771C184.17 283.12 184.088 282.651 183.926 282.361C183.763 282.072 183.582 281.882 183.383 281.792C183.184 281.702 183.031 281.629 182.922 281.575C182.922 281.412 182.99 281.191 183.126 280.911C183.261 280.631 183.487 280.373 183.803 280.138C184.12 279.903 184.54 279.785 185.064 279.785C185.607 279.785 186.072 279.926 186.461 280.206C186.849 280.486 187.152 280.87 187.369 281.358C187.586 281.846 187.695 282.407 187.695 283.039V292.449C187.695 293.443 187.464 294.338 187.003 295.133C186.542 295.929 185.914 296.553 185.119 297.004C184.323 297.456 183.41 297.682 182.38 297.682H173.648ZM176.685 294.808V287.595C176.685 286.944 176.604 286.474 176.441 286.185C176.279 285.896 176.098 285.706 175.899 285.615C175.7 285.525 175.546 285.453 175.438 285.398C175.438 285.236 175.506 285.015 175.641 284.734C175.777 284.454 176.003 284.196 176.319 283.961C176.635 283.726 177.056 283.609 177.58 283.609C178.122 283.609 178.588 283.749 178.977 284.029C179.365 284.309 179.668 284.693 179.885 285.181C180.102 285.669 180.21 286.23 180.21 286.863V294.808H176.685Z" fill="#F2F4F2"/>
    <path d="M193.824 297.682C193.155 297.682 192.694 297.488 192.441 297.099C192.188 296.711 192.061 296.29 192.061 295.838V283.771C192.061 283.12 191.98 282.651 191.818 282.361C191.655 282.072 191.474 281.882 191.275 281.792C191.076 281.702 190.923 281.629 190.814 281.575C190.814 281.431 190.882 281.214 191.018 280.924C191.153 280.635 191.379 280.373 191.696 280.138C192.012 279.903 192.441 279.785 192.983 279.785C193.508 279.785 193.964 279.926 194.353 280.206C194.741 280.486 195.044 280.87 195.261 281.358C195.478 281.846 195.587 282.407 195.587 283.039V295.892C195.587 296.308 195.46 296.711 195.207 297.099C194.954 297.488 194.493 297.682 193.824 297.682Z" fill="#F2F4F2"/>
    <path d="M210.879 297.684C209.18 297.684 207.856 297.056 206.906 295.799C205.958 294.543 205.483 292.821 205.483 290.634C205.483 289.838 205.551 289.084 205.686 288.37C205.822 287.656 206.021 287.023 206.283 286.471C206.545 285.92 206.884 285.482 207.3 285.156C207.715 284.831 208.204 284.668 208.764 284.668C209.234 284.668 209.623 284.768 209.93 284.966C210.237 285.166 210.468 285.391 210.622 285.644C210.775 285.898 210.852 286.124 210.852 286.322C210.49 286.593 210.169 286.892 209.889 287.217C209.609 287.542 209.392 287.967 209.239 288.492C209.085 289.016 209.008 289.721 209.008 290.607C209.008 291.185 209.04 291.705 209.103 292.166C209.166 292.627 209.256 293.025 209.374 293.359C209.491 293.694 209.632 293.965 209.794 294.172C209.957 294.381 210.129 294.539 210.31 294.647C210.49 294.755 210.68 294.81 210.879 294.81H219.096C219.511 294.81 219.85 294.692 220.112 294.457C220.374 294.223 220.569 293.92 220.695 293.549C220.822 293.179 220.885 292.812 220.885 292.451V287.787C220.885 287.335 221.011 286.914 221.265 286.526C221.518 286.137 221.979 285.943 222.648 285.943C223.316 285.943 223.777 286.137 224.031 286.526C224.284 286.914 224.41 287.335 224.41 287.787V292.451C224.41 293.445 224.18 294.34 223.719 295.135C223.258 295.931 222.63 296.554 221.834 297.006C221.039 297.458 220.126 297.684 219.096 297.684H210.879ZM212.75 283.99C212.28 283.99 211.869 283.819 211.516 283.475C211.164 283.132 210.988 282.716 210.988 282.228C210.988 281.74 211.164 281.324 211.516 280.98C211.869 280.637 212.28 280.465 212.75 280.465C213.238 280.465 213.654 280.637 213.998 280.98C214.341 281.324 214.513 281.74 214.513 282.228C214.513 282.716 214.341 283.132 213.998 283.475C213.654 283.819 213.238 283.99 212.75 283.99ZM217.143 283.99C216.673 283.99 216.262 283.819 215.909 283.475C215.557 283.132 215.38 282.716 215.38 282.228C215.38 281.74 215.557 281.324 215.909 280.98C216.262 280.637 216.673 280.465 217.143 280.465C217.649 280.465 218.069 280.637 218.404 280.98C218.738 281.324 218.906 281.74 218.906 282.228C218.906 282.716 218.738 283.132 218.404 283.475C218.069 283.819 217.649 283.99 217.143 283.99Z" fill="#F2F4F2"/>
    <path d="M230.54 297.682C229.871 297.682 229.41 297.488 229.157 297.099C228.904 296.711 228.777 296.29 228.777 295.838V283.771C228.777 283.12 228.696 282.651 228.533 282.361C228.37 282.072 228.189 281.882 227.991 281.792C227.792 281.702 227.638 281.629 227.53 281.575C227.53 281.431 227.598 281.214 227.733 280.924C227.869 280.635 228.095 280.373 228.411 280.138C228.727 279.903 229.157 279.785 229.699 279.785C230.223 279.785 230.68 279.926 231.069 280.206C231.457 280.486 231.76 280.87 231.977 281.358C232.194 281.846 232.302 282.407 232.302 283.039V295.892C232.302 296.308 232.176 296.711 231.923 297.099C231.669 297.488 231.208 297.682 230.54 297.682Z" fill="#F2F4F2"/>
    <path d="M236.26 303.894C235.808 303.894 235.429 303.794 235.122 303.596C234.814 303.396 234.583 303.166 234.43 302.904C234.276 302.642 234.2 302.42 234.2 302.24C234.579 301.95 234.904 301.625 235.176 301.264C235.447 300.902 235.659 300.436 235.813 299.867C235.966 299.298 236.043 298.57 236.043 297.684V286.349C236.043 285.825 236.21 285.414 236.545 285.116C236.879 284.817 237.3 284.668 237.806 284.668C238.33 284.668 238.755 284.817 239.08 285.116C239.406 285.414 239.569 285.825 239.569 286.349V297.684C239.569 298.48 239.501 299.248 239.365 299.989C239.23 300.73 239.03 301.394 238.769 301.982C238.506 302.57 238.167 303.035 237.752 303.379C237.336 303.722 236.839 303.894 236.26 303.894Z" fill="#F2F4F2"/>
    <path d="M249.251 297.682C248.238 297.682 247.33 297.456 246.526 297.004C245.721 296.553 245.088 295.929 244.627 295.133C244.166 294.338 243.936 293.443 243.936 292.449V283.771C243.936 283.12 243.854 282.651 243.692 282.361C243.529 282.072 243.348 281.882 243.149 281.792C242.95 281.702 242.797 281.629 242.688 281.575C242.688 281.431 242.756 281.214 242.892 280.924C243.027 280.635 243.253 280.373 243.57 280.138C243.886 279.903 244.315 279.785 244.858 279.785C245.382 279.785 245.838 279.926 246.227 280.206C246.616 280.486 246.919 280.87 247.135 281.358C247.352 281.846 247.461 282.407 247.461 283.039V292.449C247.461 292.811 247.524 293.177 247.651 293.547C247.777 293.918 247.976 294.221 248.247 294.455C248.518 294.69 248.853 294.808 249.251 294.808H249.983V297.682H249.251ZM249.983 297.682V294.808C250.181 294.808 250.322 294.939 250.403 295.201C250.484 295.463 250.525 295.811 250.525 296.245C250.525 296.679 250.484 297.027 250.403 297.289C250.322 297.551 250.181 297.682 249.983 297.682Z" fill="#F2F4F2"/>
    <path d="M249.981 297.684C249.801 297.684 249.665 297.553 249.574 297.291C249.484 297.029 249.439 296.681 249.439 296.247C249.439 295.813 249.484 295.465 249.574 295.203C249.665 294.941 249.801 294.81 249.981 294.81V297.684ZM249.981 297.684V294.81H251.364C251.78 294.81 252.119 294.693 252.381 294.457C252.643 294.223 252.837 293.92 252.964 293.549C253.09 293.179 253.154 292.813 253.154 292.451V287.949C253.154 287.534 253.28 287.132 253.533 286.743C253.786 286.354 254.247 286.16 254.916 286.16C255.585 286.16 256.046 286.354 256.299 286.743C256.552 287.132 256.679 287.534 256.679 287.949V292.451C256.679 293.445 256.448 294.34 255.987 295.135C255.526 295.931 254.898 296.555 254.103 297.006C253.307 297.458 252.394 297.684 251.364 297.684H249.981ZM258.469 297.684C257.456 297.684 256.548 297.458 255.743 297.006C254.939 296.555 254.306 295.931 253.845 295.135C253.384 294.34 253.154 293.445 253.154 292.451H256.679C256.679 292.813 256.742 293.174 256.869 293.535C256.995 293.897 257.194 294.2 257.465 294.444C257.737 294.688 258.071 294.81 258.469 294.81H259.065V297.684H258.469ZM259.065 297.684V294.81H260.096C260.511 294.81 260.85 294.693 261.112 294.457C261.374 294.223 261.569 293.92 261.695 293.549C261.822 293.179 261.885 292.813 261.885 292.451V287.299C261.885 286.883 262.011 286.481 262.265 286.092C262.518 285.703 262.979 285.509 263.648 285.509C264.316 285.509 264.777 285.703 265.031 286.092C265.284 286.481 265.411 286.883 265.411 287.299V292.451C265.411 293.445 265.18 294.34 264.719 295.135C264.258 295.931 263.63 296.555 262.834 297.006C262.039 297.458 261.126 297.684 260.096 297.684H259.065ZM267.2 297.684C266.188 297.684 265.279 297.458 264.475 297.006C263.67 296.555 263.038 295.931 262.577 295.135C262.116 294.34 261.885 293.445 261.885 292.451H265.411C265.411 292.83 265.474 293.201 265.6 293.562C265.727 293.924 265.926 294.223 266.197 294.457C266.468 294.693 266.802 294.81 267.2 294.81H267.797V297.684H267.2ZM267.797 297.684V294.81H268.827C269.243 294.81 269.582 294.693 269.844 294.457C270.106 294.223 270.3 293.92 270.427 293.549C270.553 293.179 270.617 292.813 270.617 292.451V286.458C270.617 286.042 270.743 285.64 270.997 285.251C271.249 284.863 271.71 284.668 272.38 284.668C273.048 284.668 273.509 284.863 273.762 285.251C274.015 285.64 274.142 286.042 274.142 286.458V292.451C274.142 293.445 273.912 294.34 273.451 295.135C272.99 295.931 272.361 296.555 271.566 297.006C270.77 297.458 269.858 297.684 268.827 297.684H267.797ZM275.932 297.684C274.919 297.684 274.011 297.458 273.207 297.006C272.402 296.555 271.769 295.931 271.308 295.135C270.847 294.34 270.617 293.445 270.617 292.451H274.142C274.142 292.813 274.205 293.179 274.332 293.549C274.458 293.92 274.657 294.223 274.929 294.457C275.2 294.693 275.534 294.81 275.932 294.81H277.315V297.684H275.932ZM277.315 297.684V294.81C277.514 294.81 277.654 294.941 277.735 295.203C277.816 295.465 277.857 295.813 277.857 296.247C277.857 296.681 277.816 297.029 277.735 297.291C277.654 297.553 277.514 297.684 277.315 297.684Z" fill="#F2F4F2"/>
    <path d="M277.314 297.684C277.134 297.684 276.998 297.553 276.907 297.291C276.817 297.029 276.772 296.681 276.772 296.247C276.772 295.813 276.817 295.465 276.907 295.203C276.998 294.941 277.134 294.81 277.314 294.81V297.684ZM277.314 297.684V294.81H284.148C284.979 294.81 285.607 294.489 286.032 293.847C286.457 293.206 286.67 292.306 286.67 291.149C286.67 289.866 286.434 288.944 285.964 288.383C285.494 287.823 284.789 287.543 283.849 287.543C283.578 287.543 283.325 287.556 283.09 287.583C282.855 287.61 282.674 287.642 282.548 287.678V297.684H279.022V287.678C279.022 286.81 279.47 286.092 280.365 285.522C281.26 284.953 282.421 284.668 283.849 284.668C285.783 284.668 287.324 285.238 288.473 286.377C289.62 287.515 290.195 289.107 290.195 291.149C290.195 292.523 289.941 293.698 289.435 294.674C288.929 295.65 288.246 296.396 287.388 296.911C286.529 297.427 285.567 297.684 284.5 297.684H277.314ZM291.984 297.684C290.972 297.684 290.063 297.458 289.259 297.006C288.455 296.555 287.822 295.931 287.361 295.135C286.9 294.34 286.67 293.445 286.67 292.451V291.257H290.195V292.451C290.195 292.813 290.258 293.179 290.384 293.549C290.511 293.92 290.71 294.223 290.981 294.457C291.252 294.693 291.586 294.81 291.984 294.81H293.367V297.684H291.984ZM293.367 297.684V294.81C293.566 294.81 293.706 294.941 293.788 295.203C293.869 295.465 293.91 295.813 293.91 296.247C293.91 296.681 293.869 297.029 293.788 297.291C293.706 297.553 293.566 297.684 293.367 297.684Z" fill="#F2F4F2"/>
    <path d="M293.369 297.682C293.188 297.682 293.053 297.551 292.962 297.289C292.872 297.027 292.826 296.679 292.826 296.245C292.826 295.811 292.872 295.463 292.962 295.201C293.053 294.939 293.188 294.808 293.369 294.808V297.682ZM293.369 297.682V294.808H294.752C295.167 294.808 295.506 294.69 295.769 294.455C296.03 294.221 296.225 293.918 296.352 293.547C296.478 293.177 296.541 292.811 296.541 292.449V283.771C296.541 283.12 296.46 282.651 296.297 282.361C296.135 282.072 295.954 281.882 295.755 281.792C295.556 281.702 295.403 281.629 295.294 281.575C295.294 281.412 295.362 281.191 295.497 280.911C295.633 280.631 295.859 280.373 296.175 280.138C296.491 279.903 296.912 279.785 297.436 279.785C297.979 279.785 298.444 279.926 298.833 280.206C299.221 280.486 299.524 280.87 299.741 281.358C299.958 281.846 300.067 282.407 300.067 283.039V292.449C300.067 293.443 299.836 294.338 299.375 295.133C298.914 295.929 298.286 296.553 297.491 297.004C296.695 297.456 295.782 297.682 294.752 297.682H293.369Z" fill="#F2F4F2"/>
    <path d="M306.005 297.682C305.336 297.682 304.875 297.488 304.622 297.099C304.369 296.711 304.242 296.29 304.242 295.838V283.771C304.242 283.12 304.161 282.651 303.998 282.361C303.835 282.072 303.655 281.882 303.456 281.792C303.257 281.702 303.103 281.629 302.995 281.575C302.995 281.431 303.063 281.214 303.198 280.924C303.334 280.635 303.56 280.373 303.876 280.138C304.192 279.903 304.622 279.785 305.164 279.785C305.688 279.785 306.145 279.926 306.534 280.206C306.922 280.486 307.225 280.87 307.442 281.358C307.659 281.846 307.767 282.407 307.767 283.039V295.892C307.767 296.308 307.641 296.711 307.388 297.099C307.134 297.488 306.673 297.682 306.005 297.682Z" fill="#F2F4F2"/>
    <path d="M52.1694 340.307V325.935C52.1694 325.121 52.0563 324.466 51.8304 323.969C51.6042 323.472 51.0847 323.223 50.2712 323.223H50V322.41H57.4571C57.9452 322.41 58.5054 322.442 59.1384 322.505C59.771 322.568 60.4171 322.699 61.0771 322.898C61.7369 323.097 62.347 323.395 62.9075 323.793C63.4677 324.191 63.9198 324.719 64.2634 325.379C64.6066 326.039 64.7786 326.866 64.7786 327.86C64.7786 328.801 64.6066 329.582 64.2634 330.206C63.9198 330.83 63.4813 331.331 62.9483 331.711C62.4148 332.091 61.8501 332.38 61.2535 332.579C60.6569 332.778 60.0917 332.909 59.5587 332.972C59.0252 333.035 58.596 333.067 58.2706 333.067H55.6945V340.307H52.1694ZM55.6945 331.982H57.3216C57.7914 331.982 58.2434 331.919 58.6774 331.792C59.1113 331.666 59.4998 331.44 59.8433 331.114C60.1866 330.789 60.4625 330.351 60.6704 329.799C60.8781 329.248 60.9823 328.556 60.9823 327.725C60.9823 326.893 60.8781 326.202 60.6704 325.65C60.4625 325.099 60.1912 324.665 59.8569 324.349C59.5223 324.033 59.1472 323.811 58.7316 323.684C58.3155 323.558 57.891 323.495 57.4571 323.495C57.258 323.495 57.0186 323.504 56.7386 323.522C56.4581 323.54 56.1102 323.594 55.6945 323.684V331.982Z" fill="#F2F4F2"/>
    <path d="M80.3968 340.578C79.7638 340.578 79.1584 340.451 78.58 340.198C78.0012 339.945 77.4365 339.534 76.8852 338.965C76.3335 338.395 75.7599 337.622 75.1633 336.646L72.4516 332.118H71.367V340.307H67.8147V325.935C67.8147 325.121 67.7016 324.466 67.4757 323.969C67.2495 323.472 66.7301 323.223 65.9165 323.223H65.6453V322.41H73.1295C73.6177 322.41 74.1825 322.442 74.8243 322.505C75.4658 322.568 76.1124 322.695 76.7632 322.884C77.414 323.074 78.0195 323.35 78.58 323.712C79.1401 324.073 79.5922 324.548 79.9358 325.135C80.279 325.723 80.451 326.45 80.451 327.318C80.451 328.276 80.2384 329.058 79.8138 329.664C79.3888 330.269 78.8418 330.744 78.1733 331.087C77.5042 331.431 76.7992 331.702 76.0581 331.901L78.9054 336.646C79.5923 337.803 80.2248 338.571 80.8035 338.951C81.3819 339.331 81.8701 339.557 82.2678 339.629V340.307C82.123 340.379 81.8653 340.443 81.495 340.497C81.1243 340.551 80.7582 340.578 80.3968 340.578ZM71.367 331.033H72.9939C73.4279 331.033 73.8617 330.97 74.2956 330.843C74.7294 330.717 75.1227 330.509 75.4751 330.22C75.8276 329.93 76.1124 329.542 76.3293 329.053C76.5463 328.565 76.6547 327.969 76.6547 327.264C76.6547 326.559 76.5505 325.967 76.3429 325.488C76.1348 325.009 75.8548 324.62 75.5022 324.322C75.1497 324.023 74.7608 323.811 74.3362 323.684C73.9113 323.558 73.4821 323.495 73.0482 323.495C72.9033 323.495 72.6911 323.504 72.411 323.522C72.1304 323.54 71.7826 323.594 71.367 323.684V331.033Z" fill="#F2F4F2"/>
    <path d="M91.8948 340.849C90.1051 340.849 88.5366 340.428 87.1901 339.588C85.8431 338.747 84.7991 337.613 84.0581 336.185C83.3166 334.757 82.9463 333.148 82.9463 331.358C82.9463 329.568 83.3166 327.96 84.0581 326.531C84.7991 325.103 85.8431 323.969 87.1901 323.128C88.5366 322.287 90.1051 321.867 91.8948 321.867C93.7023 321.867 95.2708 322.287 96.5995 323.128C97.9283 323.969 98.963 325.103 99.7044 326.531C100.445 327.96 100.816 329.568 100.816 331.358C100.816 333.148 100.445 334.757 99.7044 336.185C98.963 337.613 97.9283 338.747 96.5995 339.588C95.2708 340.428 93.7023 340.849 91.8948 340.849ZM91.8948 339.628C92.9973 339.628 93.9328 339.308 94.7014 338.666C95.4696 338.024 96.0572 337.084 96.4639 335.846C96.8707 334.608 97.0741 333.112 97.0741 331.358C97.0741 329.586 96.8707 328.086 96.4639 326.857C96.0572 325.628 95.4696 324.692 94.7014 324.05C93.9328 323.409 92.9973 323.087 91.8948 323.087C90.8102 323.087 89.8835 323.409 89.1154 324.05C88.3468 324.692 87.7596 325.628 87.3528 326.857C86.9461 328.086 86.7427 329.586 86.7427 331.358C86.7427 333.112 86.9461 334.608 87.3528 335.846C87.7596 337.084 88.3468 338.024 89.1154 338.666C89.8835 339.308 90.8102 339.628 91.8948 339.628Z" fill="#F2F4F2"/>
    <path d="M104.233 340.307V325.935C104.233 325.121 104.12 324.466 103.895 323.969C103.668 323.472 103.149 323.223 102.335 323.223H102.064V322.41H113.426C114.059 322.41 114.538 322.514 114.863 322.722C115.189 322.93 115.414 323.201 115.541 323.535C115.667 323.87 115.731 324.218 115.731 324.579V326.884H114.917C114.917 325.709 114.623 324.873 114.036 324.376C113.448 323.879 112.613 323.63 111.528 323.63H107.759V330.545H113.724V331.765H107.759V340.307H104.233Z" fill="#F2F4F2"/>
    <path d="M118.849 340.307V325.935C118.849 325.121 118.736 324.466 118.51 323.969C118.284 323.472 117.764 323.223 116.951 323.223H116.679V322.41H128.638C129.27 322.41 129.75 322.514 130.075 322.722C130.4 322.93 130.626 323.201 130.753 323.535C130.879 323.87 130.943 324.218 130.943 324.579V326.884H130.129C130.129 325.727 129.835 324.896 129.248 324.389C128.66 323.883 127.824 323.63 126.74 323.63H122.374V330.409H129.424V331.63H122.374V339.087H127.011C128.005 339.087 128.85 338.865 129.546 338.422C130.242 337.98 130.825 337.171 131.295 335.995L132.027 336.266L131.241 338.409C131.042 338.987 130.784 339.448 130.468 339.792C130.152 340.135 129.623 340.307 128.882 340.307H118.849Z" fill="#F2F4F2"/>
    <path d="M139.945 340.767C139.204 340.767 138.471 340.695 137.749 340.55C137.025 340.406 136.366 340.194 135.769 339.913C135.173 339.633 134.698 339.29 134.346 338.883C133.993 338.476 133.817 338.02 133.817 337.514V334.341H134.576C134.865 336.221 135.448 337.559 136.325 338.354C137.202 339.15 138.399 339.547 139.918 339.547C140.605 339.547 141.206 339.448 141.721 339.249C142.236 339.05 142.634 338.757 142.914 338.368C143.194 337.979 143.335 337.496 143.335 336.917C143.335 336.14 143.086 335.493 142.589 334.978C142.092 334.463 141.409 333.943 140.542 333.419L137.206 331.412C135.977 330.689 135.109 329.948 134.603 329.189C134.097 328.429 133.844 327.553 133.844 326.558C133.844 325.131 134.39 324 135.484 323.169C136.578 322.337 138.056 321.921 139.918 321.921C140.659 321.921 141.391 321.994 142.114 322.138C142.837 322.283 143.497 322.495 144.094 322.775C144.69 323.056 145.165 323.395 145.518 323.792C145.87 324.19 146.046 324.651 146.046 325.175V328.348H145.287C144.979 326.468 144.401 325.131 143.552 324.335C142.702 323.539 141.59 323.142 140.216 323.142C139.565 323.142 139 323.25 138.521 323.467C138.042 323.684 137.676 323.987 137.423 324.375C137.17 324.764 137.044 325.23 137.044 325.772C137.044 326.531 137.301 327.146 137.816 327.616C138.332 328.086 139.014 328.574 139.864 329.08L143.199 331.06C144.428 331.783 145.328 332.493 145.897 333.188C146.467 333.884 146.751 334.73 146.751 335.724C146.751 337.279 146.164 338.508 144.989 339.412C143.813 340.315 142.132 340.767 139.945 340.767Z" fill="#F2F4F2"/>
    <path d="M155.16 340.767C154.418 340.767 153.686 340.695 152.963 340.55C152.24 340.406 151.58 340.194 150.984 339.913C150.387 339.633 149.913 339.29 149.56 338.883C149.207 338.476 149.031 338.02 149.031 337.514V334.341H149.79C150.079 336.221 150.662 337.559 151.54 338.354C152.416 339.15 153.614 339.547 155.132 339.547C155.819 339.547 156.42 339.448 156.936 339.249C157.451 339.05 157.848 338.757 158.129 338.368C158.409 337.979 158.549 337.496 158.549 336.917C158.549 336.14 158.3 335.493 157.803 334.978C157.306 334.463 156.624 333.943 155.756 333.419L152.421 331.412C151.191 330.689 150.324 329.948 149.818 329.189C149.311 328.429 149.058 327.553 149.058 326.558C149.058 325.131 149.605 324 150.699 323.169C151.792 322.337 153.27 321.921 155.132 321.921C155.874 321.921 156.606 321.994 157.329 322.138C158.052 322.283 158.712 322.495 159.308 322.775C159.905 323.056 160.379 323.395 160.732 323.792C161.085 324.19 161.261 324.651 161.261 325.175V328.348H160.502C160.194 326.468 159.616 325.131 158.766 324.335C157.916 323.539 156.804 323.142 155.431 323.142C154.78 323.142 154.215 323.25 153.736 323.467C153.257 323.684 152.891 323.987 152.638 324.375C152.384 324.764 152.258 325.23 152.258 325.772C152.258 326.531 152.516 327.146 153.031 327.616C153.546 328.086 154.228 328.574 155.078 329.08L158.414 331.06C159.643 331.783 160.542 332.493 161.112 333.188C161.681 333.884 161.966 334.73 161.966 335.724C161.966 337.279 161.378 338.508 160.203 339.412C159.028 340.315 157.347 340.767 155.16 340.767Z" fill="#F2F4F2"/>
    <path d="M167.55 340.307C166.917 340.307 166.425 340.203 166.073 339.995C165.72 339.787 165.471 339.426 165.327 338.91C165.182 338.395 165.11 337.686 165.11 336.782V322.41H168.635V336.782C168.635 337.595 168.748 338.251 168.974 338.748C169.2 339.245 169.72 339.493 170.533 339.493H170.804V340.307H167.55Z" fill="#F2F4F2"/>
    <path d="M181.001 340.849C179.211 340.849 177.643 340.428 176.296 339.588C174.949 338.747 173.905 337.613 173.164 336.185C172.423 334.757 172.052 333.148 172.052 331.358C172.052 329.568 172.423 327.96 173.164 326.531C173.905 325.103 174.949 323.969 176.296 323.128C177.643 322.287 179.211 321.867 181.001 321.867C182.808 321.867 184.377 322.287 185.706 323.128C187.034 323.969 188.069 325.103 188.811 326.531C189.552 327.96 189.922 329.568 189.922 331.358C189.922 333.148 189.552 334.757 188.811 336.185C188.069 337.613 187.034 338.747 185.706 339.588C184.377 340.428 182.808 340.849 181.001 340.849ZM181.001 339.628C182.103 339.628 183.039 339.308 183.807 338.666C184.576 338.024 185.163 337.084 185.57 335.846C185.977 334.608 186.18 333.112 186.18 331.358C186.18 329.586 185.977 328.086 185.57 326.857C185.163 325.628 184.576 324.692 183.807 324.05C183.039 323.409 182.103 323.087 181.001 323.087C179.916 323.087 178.99 323.409 178.221 324.05C177.453 324.692 176.866 325.628 176.459 326.857C176.052 328.086 175.849 329.586 175.849 331.358C175.849 333.112 176.052 334.608 176.459 335.846C176.866 337.084 177.453 338.024 178.221 338.666C178.99 339.308 179.916 339.628 181.001 339.628Z" fill="#F2F4F2"/>
    <path d="M206.272 340.388L194.775 326.884V340.307H193.419V325.664C193.419 324.977 193.252 324.399 192.918 323.928C192.583 323.458 191.937 323.223 190.979 323.223H190.843V322.41H192.741C193.772 322.41 194.608 322.546 195.25 322.817C195.891 323.088 196.42 323.495 196.836 324.037L206.164 334.883V322.41H207.52V340.388H206.272Z" fill="#F2F4F2"/>
    <path d="M226.557 340.415C225.96 340.415 225.332 340.338 224.672 340.185C224.012 340.031 223.38 339.701 222.774 339.195C222.168 338.689 221.649 337.921 221.215 336.89L220.591 335.372H213.378L211.155 340.307H209.745L217.744 322.41H218.964L225.038 336.89C225.364 337.686 225.761 338.319 226.232 338.788C226.701 339.259 227.244 339.53 227.859 339.602V340.28C227.714 340.316 227.51 340.348 227.248 340.375C226.986 340.402 226.756 340.415 226.557 340.415ZM213.948 334.151H220.076L217.093 327.074L213.948 334.151Z" fill="#F2F4F2"/>
    <path d="M229.648 340.307V325.935C229.648 325.121 229.535 324.466 229.309 323.969C229.083 323.472 228.564 323.223 227.75 323.223H227.479V322.41H230.733C231.366 322.41 231.858 322.518 232.211 322.735C232.563 322.952 232.812 323.314 232.956 323.82C233.101 324.326 233.173 325.031 233.173 325.935V339.087H242.529V340.307H229.648Z" fill="#F2F4F2"/>
    <path d="M255.597 340.307V323.63H253.672C252.713 323.63 251.954 323.87 251.394 324.349C250.833 324.828 250.553 325.673 250.553 326.884H249.74V324.579C249.74 324.218 249.803 323.87 249.929 323.535C250.056 323.201 250.286 322.93 250.621 322.722C250.955 322.514 251.43 322.41 252.044 322.41H264.789V323.63H259.122V340.307H255.597Z" fill="#F2F4F2"/>
    <path d="M280.057 340.578C279.424 340.578 278.818 340.451 278.24 340.198C277.661 339.945 277.096 339.534 276.545 338.965C275.993 338.395 275.42 337.622 274.823 336.646L272.111 332.118H271.027V340.307H267.475V325.935C267.475 325.121 267.361 324.466 267.136 323.969C266.909 323.472 266.39 323.223 265.576 323.223H265.305V322.41H272.789C273.278 322.41 273.842 322.442 274.484 322.505C275.126 322.568 275.772 322.695 276.423 322.884C277.074 323.074 277.679 323.35 278.24 323.712C278.8 324.073 279.252 324.548 279.596 325.135C279.939 325.723 280.111 326.45 280.111 327.318C280.111 328.276 279.898 329.058 279.474 329.664C279.049 330.269 278.502 330.744 277.833 331.087C277.164 331.431 276.459 331.702 275.718 331.901L278.565 336.646C279.252 337.803 279.885 338.571 280.463 338.951C281.042 339.331 281.53 339.557 281.928 339.629V340.307C281.783 340.379 281.525 340.443 281.155 340.497C280.784 340.551 280.418 340.578 280.057 340.578ZM271.027 331.033H272.654C273.088 331.033 273.522 330.97 273.955 330.843C274.389 330.717 274.783 330.509 275.135 330.22C275.488 329.93 275.772 329.542 275.989 329.053C276.206 328.565 276.314 327.969 276.314 327.264C276.314 326.559 276.21 325.967 276.003 325.488C275.795 325.009 275.515 324.62 275.162 324.322C274.81 324.023 274.421 323.811 273.996 323.684C273.571 323.558 273.142 323.495 272.708 323.495C272.563 323.495 272.351 323.504 272.071 323.522C271.79 323.54 271.442 323.594 271.027 323.684V331.033Z" fill="#F2F4F2"/>
    <path d="M298.632 340.415C298.035 340.415 297.407 340.338 296.747 340.185C296.087 340.031 295.455 339.701 294.849 339.195C294.243 338.689 293.724 337.921 293.29 336.89L292.666 335.372H285.453L283.23 340.307H281.819L289.819 322.41H291.039L297.113 336.89C297.439 337.686 297.836 338.319 298.306 338.788C298.776 339.259 299.319 339.53 299.933 339.602V340.28C299.788 340.316 299.585 340.348 299.323 340.375C299.061 340.402 298.83 340.415 298.632 340.415ZM286.022 334.151H292.151L289.168 327.074L286.022 334.151Z" fill="#F2F4F2"/>
    <path d="M308.639 340.849C306.74 340.849 305.122 340.442 303.785 339.628C302.447 338.815 301.43 337.713 300.734 336.32C300.038 334.929 299.69 333.365 299.69 331.629C299.69 330.256 299.911 328.976 300.354 327.792C300.797 326.608 301.426 325.573 302.239 324.687C303.053 323.802 304.001 323.11 305.086 322.613C306.171 322.116 307.355 321.867 308.639 321.867C310.338 321.867 311.707 322.089 312.747 322.531C313.786 322.975 314.559 323.485 315.065 324.064C315.427 324.534 315.635 325.139 315.689 325.88C315.743 326.622 315.77 327.39 315.77 328.185H314.957C314.613 326.54 313.985 325.28 313.072 324.403C312.159 323.526 310.952 323.087 309.452 323.087C308.349 323.087 307.346 323.341 306.442 323.847C305.538 324.353 304.819 325.225 304.286 326.463C303.753 327.702 303.486 329.424 303.486 331.629C303.486 332.66 303.595 333.654 303.812 334.612C304.029 335.57 304.377 336.429 304.856 337.188C305.335 337.947 305.949 338.544 306.7 338.978C307.45 339.412 308.367 339.628 309.452 339.628C310.699 339.628 311.856 339.299 312.923 338.639C313.989 337.979 314.848 337.016 315.499 335.751L316.448 336.483C315.598 337.984 314.559 339.086 313.33 339.791C312.1 340.496 310.537 340.849 308.639 340.849Z" fill="#F2F4F2"/>
    <path d="M334.209 340.578C333.54 340.578 332.862 340.497 332.175 340.334C331.488 340.171 330.769 339.855 330.019 339.385C329.269 338.915 328.46 338.228 327.592 337.324L323.227 332.769V340.307H319.701L319.674 325.935C319.674 325.121 319.561 324.466 319.335 323.969C319.109 323.472 318.59 323.223 317.776 323.223H317.505V322.41H320.759C321.392 322.41 321.884 322.518 322.237 322.735C322.589 322.952 322.842 323.314 322.996 323.82C323.149 324.326 323.227 325.031 323.227 325.935V331.087L327.918 325.257C328.315 324.751 328.749 324.281 329.219 323.847C329.689 323.413 330.213 323.065 330.792 322.803C331.37 322.541 332.012 322.41 332.717 322.41H334.616V323.359C333.585 323.359 332.654 323.49 331.823 323.752C330.991 324.014 330.268 324.525 329.653 325.284L325.613 330.274L331.877 336.782C332.328 337.27 332.821 337.726 333.355 338.151C333.888 338.576 334.408 338.92 334.914 339.182C335.42 339.444 335.845 339.602 336.188 339.656V340.307C335.989 340.379 335.714 340.443 335.361 340.497C335.009 340.551 334.625 340.578 334.209 340.578Z" fill="#F2F4F2"/>
    <path d="M343.295 340.767C342.553 340.767 341.821 340.695 341.098 340.55C340.375 340.406 339.715 340.194 339.119 339.913C338.522 339.633 338.048 339.29 337.695 338.883C337.342 338.476 337.166 338.02 337.166 337.514V334.341H337.926C338.214 336.221 338.797 337.559 339.675 338.354C340.551 339.15 341.749 339.547 343.267 339.547C343.954 339.547 344.555 339.448 345.071 339.249C345.586 339.05 345.983 338.757 346.264 338.368C346.544 337.979 346.684 337.496 346.684 336.917C346.684 336.14 346.435 335.493 345.938 334.978C345.441 334.463 344.759 333.943 343.891 333.419L340.556 331.412C339.326 330.689 338.458 329.948 337.953 329.189C337.446 328.429 337.193 327.553 337.193 326.558C337.193 325.131 337.74 324 338.834 323.169C339.927 322.337 341.405 321.921 343.267 321.921C344.008 321.921 344.741 321.994 345.464 322.138C346.187 322.283 346.847 322.495 347.443 322.775C348.04 323.056 348.515 323.395 348.867 323.792C349.22 324.19 349.396 324.651 349.396 325.175V328.348H348.637C348.329 326.468 347.751 325.131 346.901 324.335C346.051 323.539 344.939 323.142 343.566 323.142C342.915 323.142 342.35 323.25 341.871 323.467C341.392 323.684 341.026 323.987 340.773 324.375C340.519 324.764 340.393 325.23 340.393 325.772C340.393 326.531 340.651 327.146 341.166 327.616C341.681 328.086 342.363 328.574 343.213 329.08L346.549 331.06C347.778 331.783 348.677 332.493 349.247 333.188C349.816 333.884 350.101 334.73 350.101 335.724C350.101 337.279 349.513 338.508 348.338 339.412C347.163 340.315 345.482 340.767 343.295 340.767Z" fill="#F2F4F2"/>
</svg>