<svg width="196" height="82" viewBox="0 0 196 82" fill="none" xmlns="http://www.w3.org/2000/svg">
<path d="M112.365 1.50766L111.006 0.873673C106.35 -1.29729 100.816 0.716945 98.6448 5.37259L83.8665 37.0649C83.577 37.6856 83.8456 38.4235 84.4663 38.713L85.8259 39.3469C90.4816 41.5179 96.0156 39.5037 98.1866 34.848L112.965 3.15575C113.254 2.53499 112.986 1.79712 112.365 1.50766Z" fill="#F4A01E"/>
<path d="M91.2826 1.50766L89.923 0.873673C85.2673 -1.29729 79.7333 0.716945 77.5623 5.37259L62.784 37.0649C62.4945 37.6856 62.7631 38.4235 63.3838 38.713L64.7434 39.3469C69.3991 41.5179 74.9331 39.5037 77.1041 34.848L91.8824 3.15575C92.1719 2.53499 91.9033 1.79712 91.2826 1.50766Z" fill="#F2F4F2"/>
<path d="M133.445 1.50766L132.086 0.873673C127.43 -1.29729 121.896 0.716945 119.725 5.37259L104.947 37.0649C104.657 37.6856 104.926 38.4235 105.546 38.713L106.906 39.3469C111.562 41.5179 117.096 39.5037 119.267 34.848L134.045 3.15575C134.334 2.53499 134.066 1.79712 133.445 1.50766Z" fill="#F2F4F2"/>
<path d="M31.1347 58.9434C30.4502 58.9434 29.8247 58.7753 29.2583 58.439C28.6919 58.1026 28.2433 57.6159 27.913 56.9786C27.5826 56.3414 27.4175 55.5744 27.4175 54.6775C27.4175 53.3441 27.7919 52.3055 28.5415 51.5621C29.2907 50.8186 30.2967 50.447 31.5596 50.447C32.4916 50.447 33.25 50.6328 33.8341 51.0044C34.4183 51.3762 34.7103 51.8453 34.7103 52.4117V58.9434H32.4092V52.4117C32.3265 52.3882 32.2084 52.3675 32.0551 52.3497C31.9017 52.332 31.7366 52.3232 31.5596 52.3232C30.9458 52.3232 30.4855 52.5063 30.1788 52.8719C29.8718 53.2378 29.7186 53.8397 29.7186 54.6775C29.7186 55.4328 29.8571 56.0201 30.1346 56.4387C30.4117 56.8577 30.8219 57.0672 31.3648 57.0672H35.8255V58.9434H31.1347ZM29.6656 49.2078C29.3584 49.2078 29.0902 49.0958 28.8602 48.8715C28.63 48.6475 28.5149 48.3759 28.5149 48.0573C28.5149 47.7386 28.63 47.4672 28.8602 47.243C29.0902 47.019 29.3584 46.9067 29.6656 46.9067C29.9841 46.9067 30.2555 47.019 30.4797 47.243C30.7037 47.4672 30.8161 47.7386 30.8161 48.0573C30.8161 48.3759 30.7037 48.6475 30.4797 48.8715C30.2555 49.0958 29.9841 49.2078 29.6656 49.2078ZM32.5331 49.2078C32.2261 49.2078 31.9579 49.0958 31.7277 48.8715C31.4976 48.6475 31.3825 48.3759 31.3825 48.0573C31.3825 47.7386 31.4976 47.4672 31.7277 47.243C31.9579 47.019 32.2261 46.9067 32.5331 46.9067C32.8634 46.9067 33.1376 47.019 33.3562 47.243C33.5744 47.4672 33.6836 47.7386 33.6836 48.0573C33.6836 48.3759 33.5744 48.6475 33.3562 48.8715C33.1376 49.0958 32.8634 49.2078 32.5331 49.2078ZM35.8255 58.9434V57.0672C35.9552 57.0672 36.0468 57.1529 36.0998 57.3237C36.1529 57.495 36.1795 57.722 36.1795 58.0052C36.1795 58.2884 36.1529 58.5159 36.0998 58.6867C36.0468 58.858 35.9552 58.9434 35.8255 58.9434Z" fill="#F2F4F2"/>
<path d="M35.8253 58.945C35.7074 58.945 35.619 58.8596 35.5598 58.6883C35.5009 58.5175 35.4712 58.29 35.4712 58.0068C35.4712 57.7236 35.5009 57.4966 35.5598 57.3253C35.619 57.1545 35.7074 57.0688 35.8253 57.0688V58.945ZM35.8253 58.945V57.0688H36.728C36.9993 57.0688 37.2206 56.9921 37.3918 56.8386C37.5627 56.6854 37.6897 56.4876 37.7724 56.2456C37.8548 56.0039 37.8963 55.7649 37.8963 55.5287V51.6168C37.8963 51.3454 37.9787 51.083 38.1441 50.8291C38.3093 50.5755 38.6101 50.4485 39.0469 50.4485C39.4833 50.4485 39.7843 50.5755 39.9496 50.8291C40.1147 51.083 40.1974 51.3454 40.1974 51.6168V55.5287C40.1974 56.1778 40.047 56.7619 39.7461 57.2811C39.4452 57.8005 39.035 58.2076 38.5159 58.5025C37.9964 58.7977 37.4006 58.945 36.728 58.945H35.8253ZM37.6131 62.7507C37.3061 62.7507 37.0378 62.6385 36.8077 62.4144C36.5775 62.1901 36.4626 61.9188 36.4626 61.6002C36.4626 61.2816 36.5775 61.01 36.8077 60.786C37.0378 60.5616 37.3061 60.4497 37.6131 60.4497C37.9317 60.4497 38.203 60.5616 38.4273 60.786C38.6514 61.01 38.7636 61.2816 38.7636 61.6002C38.7636 61.9188 38.6514 62.1901 38.4273 62.4144C38.203 62.6385 37.9317 62.7507 37.6131 62.7507ZM41.3657 58.945C40.7048 58.945 40.1117 58.7977 39.5868 58.5025C39.0615 58.2076 38.6486 57.8005 38.3476 57.2811C38.0467 56.7619 37.8963 56.1778 37.8963 55.5287H40.1974C40.1974 55.7649 40.2386 56.0039 40.3214 56.2456C40.4038 56.4876 40.5338 56.6854 40.7108 56.8386C40.8878 56.9921 41.1061 57.0688 41.3657 57.0688H42.2684V58.945H41.3657ZM40.4806 62.7507C40.1736 62.7507 39.9054 62.6385 39.6752 62.4144C39.4452 62.1901 39.3301 61.9188 39.3301 61.6002C39.3301 61.2816 39.4452 61.01 39.6752 60.786C39.9054 60.5616 40.1736 60.4497 40.4806 60.4497C40.8109 60.4497 41.0853 60.5616 41.3037 60.786C41.522 61.01 41.6313 61.2816 41.6313 61.6002C41.6313 61.9188 41.522 62.1901 41.3037 62.4144C41.0853 62.6385 40.8109 62.7507 40.4806 62.7507ZM42.2684 58.945V57.0688C42.3982 57.0688 42.4897 57.1545 42.5429 57.3253C42.596 57.4966 42.6225 57.7236 42.6225 58.0068C42.6225 58.29 42.596 58.5175 42.5429 58.6883C42.4897 58.8596 42.3982 58.945 42.2684 58.945Z" fill="#F2F4F2"/>
<path d="M42.2677 58.9444C42.1498 58.9444 42.0614 58.859 42.0022 58.6877C41.9432 58.5169 41.9136 58.2894 41.9136 58.0062C41.9136 57.723 41.9432 57.496 42.0022 57.3247C42.0614 57.1539 42.1498 57.0682 42.2677 57.0682V58.9444ZM42.2677 58.9444V57.0682H47.0823C47.4834 57.0682 47.7905 56.9443 48.0028 56.6964C48.2153 56.4486 48.3214 56.0888 48.3214 55.6167V52.4127C48.2388 52.3892 48.1206 52.3685 47.9674 52.3507C47.814 52.333 47.6489 52.3242 47.4718 52.3242C46.858 52.3242 46.3978 52.5073 46.0911 52.8729C45.7841 53.2388 45.6308 53.8407 45.6308 54.6785C45.6308 55.4338 45.7694 56.0061 46.0469 56.3954C46.324 56.785 46.7341 57.0092 47.2771 57.0682L47.047 58.9267C46.3625 58.856 45.7399 58.6585 45.1795 58.3338C44.6189 58.0093 44.1706 57.5433 43.8342 56.9354C43.4979 56.3277 43.3298 55.5754 43.3298 54.6785C43.3298 53.3451 43.7041 52.3065 44.4538 51.5631C45.203 50.8196 46.2089 50.448 47.4718 50.448C48.4038 50.448 49.1623 50.6338 49.7464 51.0054C50.3305 51.3772 50.6225 51.8463 50.6225 52.4127V55.6167C50.6225 56.2538 50.4721 56.8234 50.1712 57.3247C49.8703 57.8265 49.4543 58.2217 48.9233 58.5107C48.3922 58.8001 47.7785 58.9444 47.0823 58.9444H42.2677ZM47.4895 49.2973C47.1235 49.2973 46.8138 49.1707 46.5601 48.9167C46.3063 48.6632 46.1795 48.3653 46.1795 48.0228C46.1795 47.6688 46.3063 47.3678 46.5601 47.1201C46.8138 46.8723 47.1235 46.7484 47.4895 46.7484C47.8317 46.7484 48.1294 46.8723 48.3834 47.1201C48.6371 47.3678 48.764 47.6688 48.764 48.0228C48.764 48.3653 48.6371 48.6632 48.3834 48.9167C48.1294 49.1707 47.8317 49.2973 47.4895 49.2973Z" fill="#F2F4F2"/>
<path d="M54.6241 58.9437C54.1873 58.9437 53.8864 58.8171 53.7213 58.5631C53.5559 58.3094 53.4734 58.0352 53.4734 57.74V49.8631C53.4734 49.4381 53.4204 49.1314 53.3142 48.9426C53.2079 48.7539 53.0898 48.63 52.9601 48.5708C52.8302 48.5119 52.7301 48.4646 52.6592 48.4292C52.6592 48.335 52.7034 48.1934 52.792 48.0044C52.8804 47.8158 53.0278 47.6445 53.2345 47.4911C53.4408 47.3378 53.7213 47.2609 54.0752 47.2609C54.4173 47.2609 54.7152 47.3525 54.9692 47.5353C55.2227 47.7184 55.4205 47.9689 55.5621 48.2876C55.7037 48.6062 55.7746 48.9721 55.7746 49.3851V57.7754C55.7746 58.047 55.6919 58.3094 55.5268 58.5631C55.3613 58.8171 55.0604 58.9437 54.6241 58.9437Z" fill="#F2F4F2"/>
<path d="M58.3583 62.9987C58.0633 62.9987 57.8156 62.9335 57.615 62.8039C57.4142 62.6738 57.2637 62.5234 57.1636 62.3524C57.0632 62.1813 57.0132 62.0367 57.0132 61.9188C57.261 61.7298 57.4733 61.5175 57.6503 61.2816C57.8274 61.0453 57.9659 60.7417 58.0663 60.37C58.1665 59.9982 58.2167 59.5231 58.2167 58.945V51.5459C58.2167 51.2038 58.3258 50.9353 58.5443 50.7405C58.7626 50.5458 59.0368 50.4485 59.3674 50.4485C59.7096 50.4485 59.9869 50.5458 60.1993 50.7405C60.4118 50.9353 60.518 51.2038 60.518 51.5459V58.945C60.518 59.4642 60.4737 59.9656 60.3852 60.4497C60.2967 60.9334 60.1666 61.367 59.9958 61.7506C59.8245 62.1341 59.6032 62.438 59.332 62.6623C59.0603 62.8863 58.7359 62.9987 58.3583 62.9987ZM60.518 58.945V57.0688H62.3411V58.945H60.518ZM62.3411 58.945V57.0688C62.4709 57.0688 62.5624 57.1545 62.6155 57.3253C62.6687 57.4966 62.6952 57.7236 62.6952 58.0068C62.6952 58.29 62.6687 58.5175 62.6155 58.6883C62.5624 58.8596 62.4709 58.945 62.3411 58.945Z" fill="#F2F4F2"/>
<path d="M62.3433 58.9434C62.2255 58.9434 62.1371 58.858 62.0778 58.6867C62.0189 58.5159 61.9893 58.2884 61.9893 58.0052C61.9893 57.722 62.0189 57.495 62.0778 57.3237C62.1371 57.1529 62.2255 57.0672 62.3433 57.0672V58.9434ZM62.3433 58.9434V57.0672H63.2461C63.5174 57.0672 63.7386 56.9905 63.9099 56.837C64.0808 56.6838 64.2078 56.4861 64.2905 56.2441C64.3729 56.0023 64.4144 55.7634 64.4144 55.5271V51.6152C64.4144 51.3438 64.4968 51.0814 64.6621 50.8275C64.8274 50.5739 65.1282 50.447 65.5649 50.447C66.0014 50.447 66.3023 50.5739 66.4677 50.8275C66.6328 51.0814 66.7155 51.3438 66.7155 51.6152V55.5271C66.7155 56.1762 66.5651 56.7603 66.2641 57.2795C65.9632 57.799 65.5531 58.206 65.0339 58.5009C64.5145 58.7961 63.9187 58.9434 63.2461 58.9434H62.3433ZM64.1312 49.2078C63.8242 49.2078 63.5558 49.0958 63.3258 48.8715C63.0956 48.6475 62.9806 48.3759 62.9806 48.0573C62.9806 47.7386 63.0956 47.4672 63.3258 47.243C63.5558 47.019 63.8242 46.9067 64.1312 46.9067C64.4498 46.9067 64.7211 47.019 64.9454 47.243C65.1695 47.4672 65.2817 47.7386 65.2817 48.0573C65.2817 48.3759 65.1695 48.6475 64.9454 48.8715C64.7211 49.0958 64.4498 49.2078 64.1312 49.2078ZM67.8837 58.9434C67.2228 58.9434 66.6298 58.7961 66.1048 58.5009C65.5796 58.206 65.1666 57.799 64.8657 57.2795C64.5648 56.7603 64.4144 56.1762 64.4144 55.5271H66.7155C66.7155 55.7634 66.7567 56.0023 66.8395 56.2441C66.9219 56.4861 67.0518 56.6838 67.2289 56.837C67.4059 56.9905 67.6241 57.0672 67.8837 57.0672H68.7865V58.9434H67.8837ZM66.9987 49.2078C66.6917 49.2078 66.4235 49.0958 66.1933 48.8715C65.9632 48.6475 65.8481 48.3759 65.8481 48.0573C65.8481 47.7386 65.9632 47.4672 66.1933 47.243C66.4235 47.019 66.6917 46.9067 66.9987 46.9067C67.329 46.9067 67.6034 47.019 67.8218 47.243C68.04 47.4672 68.1494 47.7386 68.1494 48.0573C68.1494 48.3759 68.04 48.6475 67.8218 48.8715C67.6034 49.0958 67.329 49.2078 66.9987 49.2078ZM68.7865 58.9434V57.0672C68.9163 57.0672 69.0078 57.1529 69.0609 57.3237C69.1141 57.495 69.1406 57.722 69.1406 58.0052C69.1406 58.2884 69.1141 58.5159 69.0609 58.6867C69.0078 58.858 68.9163 58.9434 68.7865 58.9434Z" fill="#F2F4F2"/>
<path d="M68.7857 58.9435C68.6679 58.9435 68.5794 58.8581 68.5202 58.6868C68.4613 58.516 68.4316 58.2885 68.4316 58.0053C68.4316 57.7221 68.4613 57.4951 68.5202 57.3238C68.5794 57.153 68.6679 57.0673 68.7857 57.0673V58.9435ZM68.7857 58.9435V57.0673H74.3615C74.7391 57.0673 75.0281 56.9317 75.2289 56.66C75.4294 56.3888 75.5298 55.9228 75.5298 55.2617C75.5298 54.2823 75.2937 53.5478 74.8218 53.0579C74.3497 52.5684 73.6358 52.3233 72.68 52.3233H72.1312C71.9069 52.3233 71.6826 52.3264 71.4586 52.3321C71.2343 52.3383 71.0453 52.341 70.8922 52.341C70.5027 52.341 70.1842 52.2497 69.9363 52.0666C69.6885 51.8838 69.5027 51.6448 69.3786 51.3497C69.2548 51.0549 69.1928 50.754 69.1928 50.447C69.1928 50.1991 69.2429 50.0253 69.3433 49.9249C69.4435 49.8247 69.5408 49.7804 69.6353 49.792C69.6943 49.9809 69.8418 50.1432 70.0779 50.2788C70.3138 50.4146 70.6679 50.4823 71.14 50.4823C71.2578 50.4823 71.4232 50.4796 71.6356 50.4736C71.848 50.4678 72.0574 50.4619 72.264 50.4558C72.4703 50.4501 72.6092 50.447 72.68 50.447C73.6004 50.447 74.385 50.5797 75.0343 50.8452C75.6831 51.1108 76.2141 51.4737 76.6273 51.934C77.0402 52.3941 77.3441 52.9105 77.5389 53.4828C77.7337 54.0553 77.831 54.6482 77.831 55.2617C77.831 56.1468 77.6598 56.8608 77.3176 57.4035C76.9752 57.9464 76.5388 58.3389 76.0078 58.5807C75.4768 58.8227 74.928 58.9435 74.3615 58.9435H68.7857Z" fill="#F2F4F2"/>
<path d="M80.7163 58.9437C80.5155 58.9437 80.3239 58.8671 80.1411 58.7136C79.958 58.5604 79.8667 58.3241 79.8667 58.0055C79.8667 57.687 79.958 57.451 80.1411 57.2975C80.3239 57.1442 80.5275 57.0674 80.7518 57.0674H86.4162C86.6874 57.0674 86.9087 56.9908 87.08 56.8372C87.2508 56.6841 87.3777 56.4863 87.4606 56.2443C87.543 56.0026 87.5844 55.7636 87.5844 55.5274V49.8631C87.5844 49.4381 87.5313 49.1314 87.4251 48.9426C87.3188 48.7539 87.2008 48.63 87.071 48.5708C86.9411 48.5119 86.841 48.4646 86.7701 48.4292C86.7701 48.323 86.8143 48.1787 86.9029 47.9956C86.9914 47.8128 87.1389 47.6445 87.3455 47.4911C87.5517 47.3378 87.8262 47.2609 88.1686 47.2609C88.5225 47.2609 88.8262 47.3525 89.0801 47.5353C89.3338 47.7184 89.5314 47.9689 89.6732 48.2876C89.8148 48.6062 89.8855 48.9721 89.8855 49.3851V55.5274C89.8855 56.1765 89.7351 56.7606 89.4342 57.2798C89.1333 57.7992 88.723 58.2063 88.2039 58.5012C87.6846 58.7963 87.0888 58.9437 86.4162 58.9437H80.7163ZM82.6989 57.0674V52.3589C82.6989 51.9341 82.6458 51.6273 82.5396 51.4384C82.4334 51.2497 82.3153 51.1258 82.1855 51.0666C82.0556 51.0077 81.9555 50.9605 81.8846 50.925C81.8846 50.8189 81.929 50.6745 82.0174 50.4914C82.1058 50.3086 82.2534 50.1404 82.4599 49.987C82.6662 49.8337 82.9406 49.7568 83.283 49.7568C83.637 49.7568 83.9408 49.8484 84.1946 50.0312C84.4483 50.2143 84.6461 50.4648 84.7877 50.7834C84.9293 51.1021 85 51.468 85 51.881V57.0674H82.6989Z" fill="#F2F4F2"/>
<path d="M93.8863 58.9437C93.4495 58.9437 93.1486 58.8171 92.9835 58.5631C92.8181 58.3094 92.7356 58.0352 92.7356 57.74V49.8631C92.7356 49.4381 92.6826 49.1314 92.5764 48.9426C92.4701 48.7539 92.352 48.63 92.2223 48.5708C92.0924 48.5119 91.9923 48.4646 91.9214 48.4292C91.9214 48.335 91.9656 48.1934 92.0542 48.0044C92.1427 47.8158 92.29 47.6445 92.4967 47.4911C92.703 47.3378 92.9835 47.2609 93.3374 47.2609C93.6795 47.2609 93.9774 47.3525 94.2314 47.5353C94.4849 47.7184 94.6827 47.9689 94.8243 48.2876C94.9659 48.6062 95.0368 48.9721 95.0368 49.3851V57.7754C95.0368 58.047 94.9541 58.3094 94.789 58.5631C94.6235 58.8171 94.3226 58.9437 93.8863 58.9437Z" fill="#F2F4F2"/>
<path d="M105.019 58.945C103.909 58.945 103.045 58.5351 102.425 57.7148C101.806 56.8947 101.496 55.7706 101.496 54.3426C101.496 53.8235 101.54 53.331 101.629 52.8647C101.717 52.3987 101.847 51.9857 102.018 51.6255C102.189 51.2657 102.411 50.9795 102.682 50.767C102.953 50.5546 103.272 50.4485 103.638 50.4485C103.945 50.4485 104.198 50.5134 104.399 50.6431C104.6 50.7732 104.75 50.9205 104.85 51.0856C104.951 51.251 105.001 51.3985 105.001 51.5281C104.765 51.7052 104.555 51.8999 104.373 52.1123C104.189 52.3248 104.048 52.6022 103.948 52.9443C103.847 53.2867 103.797 53.747 103.797 54.3249C103.797 54.7028 103.818 55.0419 103.859 55.3428C103.9 55.6437 103.959 55.9034 104.036 56.1217C104.113 56.3401 104.204 56.5171 104.311 56.6527C104.417 56.7885 104.529 56.8916 104.647 56.9624C104.765 57.0332 104.889 57.0687 105.019 57.0687H110.382C110.653 57.0687 110.875 56.992 111.046 56.8385C111.217 56.6854 111.344 56.4876 111.426 56.2456C111.509 56.0038 111.55 55.7649 111.55 55.5286V52.4841C111.55 52.1892 111.633 51.9148 111.798 51.661C111.963 51.4073 112.264 51.2804 112.701 51.2804C113.137 51.2804 113.438 51.4073 113.604 51.661C113.769 51.9148 113.851 52.1892 113.851 52.4841V55.5286C113.851 56.1777 113.701 56.7618 113.4 57.281C113.099 57.8005 112.689 58.2076 112.17 58.5024C111.65 58.7976 111.055 58.945 110.382 58.945H105.019ZM106.24 50.0059C105.933 50.0059 105.665 49.8939 105.435 49.6696C105.205 49.4456 105.089 49.1739 105.089 48.8553C105.089 48.5368 105.205 48.2654 105.435 48.0411C105.665 47.8171 105.933 47.7047 106.24 47.7047C106.559 47.7047 106.83 47.8171 107.054 48.0411C107.278 48.2654 107.391 48.5368 107.391 48.8553C107.391 49.1739 107.278 49.4456 107.054 49.6696C106.83 49.8939 106.559 50.0059 106.24 50.0059ZM109.108 50.0059C108.801 50.0059 108.532 49.8939 108.302 49.6696C108.072 49.4456 107.957 49.1739 107.957 48.8553C107.957 48.5368 108.072 48.2654 108.302 48.0411C108.532 47.8171 108.801 47.7047 109.108 47.7047C109.438 47.7047 109.712 47.8171 109.931 48.0411C110.149 48.2654 110.258 48.5368 110.258 48.8553C110.258 49.1739 110.149 49.4456 109.931 49.6696C109.712 49.8939 109.438 50.0059 109.108 50.0059Z" fill="#F2F4F2"/>
<path d="M117.853 58.9437C117.416 58.9437 117.115 58.8171 116.95 58.5631C116.784 58.3094 116.702 58.0352 116.702 57.74V49.8631C116.702 49.4381 116.649 49.1314 116.543 48.9426C116.436 48.7539 116.318 48.63 116.189 48.5708C116.059 48.5119 115.959 48.4646 115.888 48.4292C115.888 48.335 115.932 48.1934 116.021 48.0044C116.109 47.8158 116.256 47.6445 116.463 47.4911C116.669 47.3378 116.95 47.2609 117.304 47.2609C117.646 47.2609 117.944 47.3525 118.198 47.5353C118.451 47.7184 118.649 47.9689 118.791 48.2876C118.932 48.6062 119.003 48.9721 119.003 49.3851V57.7754C119.003 58.047 118.92 58.3094 118.755 58.5631C118.59 58.8171 118.289 58.9437 117.853 58.9437Z" fill="#F2F4F2"/>
<path d="M121.587 62.9987C121.292 62.9987 121.044 62.9335 120.844 62.8039C120.643 62.6738 120.492 62.5234 120.392 62.3524C120.292 62.1813 120.242 62.0367 120.242 61.9188C120.489 61.7298 120.702 61.5175 120.879 61.2816C121.056 61.0453 121.194 60.7417 121.295 60.37C121.395 59.9982 121.445 59.5231 121.445 58.945V51.5459C121.445 51.2038 121.554 50.9353 121.773 50.7405C121.991 50.5458 122.265 50.4485 122.596 50.4485C122.938 50.4485 123.215 50.5458 123.428 50.7405C123.64 50.9353 123.746 51.2038 123.746 51.5459V58.945C123.746 59.4642 123.702 59.9656 123.614 60.4497C123.525 60.9334 123.395 61.367 123.224 61.7506C123.053 62.1341 122.832 62.438 122.561 62.6623C122.289 62.8863 121.964 62.9987 121.587 62.9987Z" fill="#F2F4F2"/>
<path d="M130.066 58.9437C129.405 58.9437 128.812 58.7963 128.287 58.5012C127.762 58.2063 127.349 57.7992 127.048 57.2798C126.747 56.7606 126.597 56.1765 126.597 55.5274V49.8631C126.597 49.4381 126.544 49.1314 126.438 48.9426C126.331 48.7539 126.213 48.63 126.084 48.5708C125.954 48.5119 125.854 48.4646 125.783 48.4292C125.783 48.335 125.827 48.1934 125.916 48.0044C126.004 47.8158 126.151 47.6445 126.358 47.4911C126.564 47.3378 126.845 47.2609 127.199 47.2609C127.541 47.2609 127.839 47.3525 128.093 47.5353C128.346 47.7184 128.544 47.9689 128.686 48.2876C128.827 48.6062 128.898 48.9721 128.898 49.3851V55.5274C128.898 55.7636 128.939 56.0026 129.022 56.2443C129.104 56.4863 129.234 56.6841 129.411 56.8372C129.588 56.9908 129.807 57.0674 130.066 57.0674H130.544V58.9437H130.066ZM130.544 58.9437V57.0674C130.674 57.0674 130.766 57.1531 130.819 57.324C130.872 57.4953 130.898 57.7223 130.898 58.0055C130.898 58.2887 130.872 58.5162 130.819 58.687C130.766 58.8583 130.674 58.9437 130.544 58.9437Z" fill="#F2F4F2"/>
<path d="M130.545 58.945C130.427 58.945 130.338 58.8596 130.279 58.6883C130.22 58.5175 130.19 58.29 130.19 58.0068C130.19 57.7236 130.22 57.4966 130.279 57.3253C130.338 57.1545 130.427 57.0688 130.545 57.0688V58.945ZM130.545 58.945V57.0688H131.447C131.719 57.0688 131.94 56.9921 132.111 56.8386C132.282 56.6854 132.409 56.4876 132.492 56.2456C132.574 56.0039 132.616 55.7649 132.616 55.5287V52.5903C132.616 52.3191 132.698 52.0565 132.863 51.8026C133.029 51.549 133.329 51.4221 133.766 51.4221C134.203 51.4221 134.503 51.549 134.669 51.8026C134.834 52.0565 134.917 52.3191 134.917 52.5903V55.5287C134.917 56.1778 134.766 56.7619 134.465 57.2811C134.164 57.8005 133.754 58.2076 133.235 58.5025C132.716 58.7977 132.12 58.945 131.447 58.945H130.545ZM136.085 58.945C135.424 58.945 134.831 58.7977 134.306 58.5025C133.781 58.2076 133.368 57.8005 133.067 57.2811C132.766 56.7619 132.616 56.1778 132.616 55.5287H134.917C134.917 55.7649 134.958 56.0009 135.041 56.2367C135.123 56.473 135.253 56.6704 135.43 56.8298C135.607 56.9891 135.825 57.0688 136.085 57.0688H136.474V58.945H136.085ZM136.474 58.945V57.0688H137.147C137.418 57.0688 137.64 56.9921 137.811 56.8386C137.982 56.6854 138.109 56.4876 138.191 56.2456C138.274 56.0039 138.315 55.7649 138.315 55.5287V52.1655C138.315 51.8941 138.398 51.6316 138.563 51.3778C138.728 51.1242 139.029 50.9972 139.466 50.9972C139.902 50.9972 140.203 51.1242 140.369 51.3778C140.534 51.6316 140.616 51.8941 140.616 52.1655V55.5287C140.616 56.1778 140.466 56.7619 140.165 57.2811C139.864 57.8005 139.454 58.2076 138.935 58.5025C138.415 58.7977 137.82 58.945 137.147 58.945H136.474ZM141.785 58.945C141.124 58.945 140.531 58.7977 140.006 58.5025C139.48 58.2076 139.068 57.8005 138.767 57.2811C138.466 56.7619 138.315 56.1778 138.315 55.5287H140.616C140.616 55.7765 140.658 56.0185 140.74 56.2544C140.823 56.4907 140.953 56.6854 141.13 56.8386C141.307 56.9921 141.525 57.0688 141.785 57.0688H142.174V58.945H141.785ZM142.174 58.945V57.0688H142.847C143.118 57.0688 143.339 56.9921 143.511 56.8386C143.681 56.6854 143.808 56.4876 143.891 56.2456C143.974 56.0039 144.015 55.7649 144.015 55.5287V51.6168C144.015 51.3454 144.098 51.083 144.263 50.8291C144.428 50.5755 144.729 50.4485 145.166 50.4485C145.602 50.4485 145.903 50.5755 146.068 50.8291C146.234 51.083 146.316 51.3454 146.316 51.6168V55.5287C146.316 56.1778 146.166 56.7619 145.865 57.2811C145.564 57.8005 145.154 58.2076 144.635 58.5025C144.115 58.7977 143.519 58.945 142.847 58.945H142.174ZM147.484 58.945C146.823 58.945 146.23 58.7977 145.706 58.5025C145.18 58.2076 144.767 57.8005 144.466 57.2811C144.166 56.7619 144.015 56.1778 144.015 55.5287H146.316C146.316 55.7649 146.357 56.0039 146.44 56.2456C146.522 56.4876 146.653 56.6854 146.83 56.8386C147.007 56.9921 147.225 57.0688 147.484 57.0688H148.387V58.945H147.484ZM148.387 58.945V57.0688C148.517 57.0688 148.609 57.1545 148.662 57.3253C148.715 57.4966 148.741 57.7236 148.741 58.0068C148.741 58.29 148.715 58.5175 148.662 58.6883C148.609 58.8596 148.517 58.945 148.387 58.945Z" fill="#F2F4F2"/>
<path d="M148.386 58.945C148.268 58.945 148.18 58.8596 148.121 58.6883C148.062 58.5175 148.032 58.29 148.032 58.0068C148.032 57.7236 148.062 57.4966 148.121 57.3253C148.18 57.1545 148.268 57.0688 148.386 57.0688V58.945ZM148.386 58.945V57.0688H152.847C153.39 57.0688 153.8 56.8593 154.077 56.4403C154.354 56.0216 154.493 55.4343 154.493 54.6791C154.493 53.8413 154.34 53.2394 154.033 52.8735C153.726 52.5079 153.266 52.3248 152.652 52.3248C152.475 52.3248 152.31 52.3336 152.157 52.3513C152.003 52.3691 151.885 52.3898 151.803 52.4133V58.945H149.501V52.4133C149.501 51.8469 149.794 51.3778 150.378 51.006C150.962 50.6344 151.72 50.4485 152.652 50.4485C153.915 50.4485 154.921 50.8202 155.67 51.5637C156.42 52.3071 156.794 53.3457 156.794 54.6791C156.794 55.5759 156.629 56.343 156.299 56.9802C155.968 57.6174 155.523 58.1042 154.962 58.4406C154.402 58.7769 153.773 58.945 153.077 58.945H148.386ZM157.963 58.945C157.302 58.945 156.709 58.7977 156.184 58.5025C155.658 58.2076 155.245 57.8005 154.945 57.2811C154.644 56.7619 154.493 56.1778 154.493 55.5287V54.7498H156.794V55.5287C156.794 55.7649 156.836 56.0039 156.918 56.2456C157.001 56.4876 157.131 56.6854 157.308 56.8386C157.485 56.9921 157.703 57.0688 157.963 57.0688H158.865V58.945H157.963ZM158.865 58.945V57.0688C158.995 57.0688 159.087 57.1545 159.14 57.3253C159.193 57.4966 159.219 57.7236 159.219 58.0068C159.219 58.29 159.193 58.5175 159.14 58.6883C159.087 58.8596 158.995 58.945 158.865 58.945Z" fill="#F2F4F2"/>
<path d="M158.866 58.9437C158.748 58.9437 158.66 58.8583 158.601 58.687C158.542 58.5162 158.512 58.2887 158.512 58.0055C158.512 57.7223 158.542 57.4953 158.601 57.324C158.66 57.1531 158.748 57.0674 158.866 57.0674V58.9437ZM158.866 58.9437V57.0674H159.769C160.04 57.0674 160.262 56.9908 160.433 56.8372C160.604 56.6841 160.731 56.4863 160.813 56.2443C160.896 56.0026 160.937 55.7636 160.937 55.5274V49.8631C160.937 49.4381 160.884 49.1314 160.778 48.9426C160.672 48.7539 160.554 48.63 160.424 48.5708C160.294 48.5119 160.194 48.4646 160.123 48.4292C160.123 48.323 160.167 48.1787 160.256 47.9956C160.344 47.8128 160.492 47.6445 160.698 47.4911C160.905 47.3378 161.179 47.2609 161.521 47.2609C161.876 47.2609 162.179 47.3525 162.433 47.5353C162.687 47.7184 162.884 47.9689 163.026 48.2876C163.168 48.6062 163.238 48.9721 163.238 49.3851V55.5274C163.238 56.1765 163.088 56.7606 162.787 57.2798C162.486 57.7992 162.076 58.2063 161.557 58.5012C161.037 58.7963 160.442 58.9437 159.769 58.9437H158.866Z" fill="#F2F4F2"/>
<path d="M167.115 58.9437C166.678 58.9437 166.377 58.8171 166.212 58.5631C166.047 58.3094 165.964 58.0352 165.964 57.74V49.8631C165.964 49.4381 165.911 49.1314 165.805 48.9426C165.699 48.7539 165.58 48.63 165.451 48.5708C165.321 48.5119 165.221 48.4646 165.15 48.4292C165.15 48.335 165.194 48.1934 165.283 48.0044C165.371 47.8158 165.519 47.6445 165.725 47.4911C165.932 47.3378 166.212 47.2609 166.566 47.2609C166.908 47.2609 167.206 47.3525 167.46 47.5353C167.713 47.7184 167.911 47.9689 168.053 48.2876C168.194 48.6062 168.265 48.9721 168.265 49.3851V57.7754C168.265 58.047 168.183 58.3094 168.018 58.5631C167.852 58.8171 167.551 58.9437 167.115 58.9437Z" fill="#F2F4F2"/>
<path d="M1.4161 81.5634V72.1818C1.4161 71.6507 1.34228 71.2232 1.19484 70.8985C1.04719 70.5741 0.708089 70.4117 0.17704 70.4117H0V69.8806H4.86781C5.18646 69.8806 5.55213 69.9014 5.96534 69.9427C6.37827 69.9842 6.80005 70.0696 7.23092 70.1993C7.66156 70.3293 8.05986 70.524 8.42576 70.7834C8.79143 71.0431 9.08652 71.3883 9.31081 71.819C9.53489 72.2498 9.64717 72.7897 9.64717 73.4386C9.64717 74.0524 9.53489 74.5626 9.31081 74.9697C9.08652 75.3769 8.80029 75.7044 8.45233 75.9521C8.10409 76.2 7.73546 76.3889 7.34601 76.5185C6.95657 76.6486 6.58765 76.734 6.23969 76.7752C5.89145 76.8167 5.61127 76.8372 5.39886 76.8372H3.71727V81.5634H1.4161ZM3.71727 76.1292H4.77936C5.08605 76.1292 5.38114 76.088 5.66442 76.0053C5.94763 75.9229 6.20123 75.7751 6.42552 75.5628C6.64959 75.3503 6.82966 75.0643 6.96543 74.7042C7.10099 74.3444 7.16897 73.893 7.16897 73.3501C7.16897 72.8075 7.10098 72.356 6.96543 71.996C6.82966 71.6362 6.65262 71.353 6.43438 71.1463C6.21592 70.94 5.97111 70.7953 5.69978 70.7127C5.42817 70.6303 5.15109 70.5888 4.86781 70.5888C4.73788 70.5888 4.58158 70.5948 4.39878 70.6065C4.21569 70.6183 3.98859 70.6537 3.71727 70.7127V76.1292Z" fill="#F2F4F2"/>
<path d="M19.8419 81.7404C19.4286 81.7404 19.0334 81.6577 18.6559 81.4927C18.278 81.3274 17.9094 81.0589 17.5496 80.6873C17.1894 80.3155 16.815 79.811 16.4255 79.1737L14.6554 76.2176H13.9474V81.5634H11.6285V72.1818C11.6285 71.6507 11.5547 71.2232 11.4072 70.8985C11.2596 70.5741 10.9205 70.4117 10.3894 70.4117H10.2124V69.8806H15.0979C15.4166 69.8806 15.7853 69.9014 16.2043 69.9427C16.623 69.9842 17.0451 70.0666 17.4699 70.1905C17.8947 70.3144 18.29 70.4944 18.6559 70.7304C19.0215 70.9665 19.3166 71.2763 19.5409 71.6597C19.7649 72.0433 19.8772 72.5182 19.8772 73.0846C19.8772 73.7102 19.7384 74.2205 19.4613 74.6158C19.1838 75.0112 18.8268 75.321 18.3904 75.545C17.9536 75.7693 17.4934 75.9464 17.0097 76.076L18.8683 79.1737C19.3166 79.9291 19.7296 80.4306 20.1074 80.6783C20.4849 80.9262 20.8036 81.0739 21.0632 81.1209V81.5634C20.9686 81.6105 20.8005 81.652 20.5587 81.6873C20.3167 81.7227 20.0777 81.7404 19.8419 81.7404ZM13.9474 75.5096H15.0094C15.2927 75.5096 15.5759 75.4684 15.8591 75.3857C16.1423 75.3033 16.399 75.1675 16.6291 74.9786C16.8592 74.7899 17.0451 74.5361 17.1867 74.2174C17.3283 73.8988 17.3991 73.5094 17.3991 73.0492C17.3991 72.5889 17.331 72.2026 17.1955 71.8897C17.0597 71.5773 16.8769 71.3233 16.6468 71.1285C16.4167 70.9339 16.1628 70.7953 15.8856 70.7127C15.6082 70.6303 15.3281 70.5888 15.0448 70.5888C14.9503 70.5888 14.8117 70.5948 14.6289 70.6065C14.4457 70.6183 14.2187 70.6537 13.9474 70.7127V75.5096Z" fill="#F2F4F2"/>
<path d="M27.3487 81.9172C26.1804 81.9172 25.1565 81.6428 24.2776 81.0941C23.3983 80.5454 22.7168 79.805 22.2331 78.8725C21.749 77.9405 21.5073 76.8901 21.5073 75.7218C21.5073 74.5536 21.749 73.5034 22.2331 72.571C22.7168 71.639 23.3983 70.8982 24.2776 70.3495C25.1565 69.8007 26.1804 69.5264 27.3487 69.5264C28.5286 69.5264 29.5525 69.8007 30.4198 70.3495C31.2872 70.8982 31.9626 71.639 32.4466 72.571C32.9304 73.5034 33.1724 74.5536 33.1724 75.7218C33.1724 76.8901 32.9304 77.9405 32.4466 78.8725C31.9626 79.805 31.2872 80.5454 30.4198 81.0941C29.5525 81.6428 28.5286 81.9172 27.3487 81.9172ZM27.3487 81.1206C28.0684 81.1206 28.679 80.9113 29.1808 80.4923C29.6822 80.0735 30.0658 79.4598 30.3313 78.6513C30.5969 77.8431 30.7296 76.8666 30.7296 75.7218C30.7296 74.5654 30.5969 73.5861 30.3313 72.7834C30.0658 71.9811 29.6822 71.3703 29.1808 70.9514C28.679 70.5326 28.0684 70.3229 27.3487 70.3229C26.6407 70.3229 26.0357 70.5326 25.5344 70.9514C25.0326 71.3703 24.6493 71.9811 24.3838 72.7834C24.1183 73.5861 23.9855 74.5654 23.9855 75.7218C23.9855 76.8666 24.1183 77.8431 24.3838 78.6513C24.6493 79.4598 25.0326 80.0735 25.5344 80.4923C26.0357 80.9113 26.6407 81.1206 27.3487 81.1206Z" fill="#F2F4F2"/>
<path d="M35.4024 81.5634V72.1818C35.4024 71.6507 35.3286 71.2232 35.1812 70.8985C35.0335 70.5741 34.6944 70.4117 34.1634 70.4117H33.9863V69.8806H41.4031C41.8161 69.8806 42.1289 69.9488 42.3413 70.0843C42.5537 70.22 42.7011 70.397 42.7838 70.6153C42.8662 70.8338 42.9077 71.0608 42.9077 71.2968V72.8014H42.3767C42.3767 72.0343 42.1848 71.4887 41.8014 71.164C41.4178 70.8396 40.8721 70.6772 40.1641 70.6772H37.7036V75.191H41.5978V75.9876H37.7036V81.5634H35.4024Z" fill="#F2F4F2"/>
<path d="M44.943 81.5634V72.1818C44.943 71.6507 44.8691 71.2232 44.7217 70.8985C44.574 70.5741 44.2349 70.4117 43.7039 70.4117H43.5269V69.8806H51.3331C51.746 69.8806 52.0589 69.9488 52.2713 70.0843C52.4837 70.22 52.6311 70.397 52.7138 70.6153C52.7962 70.8338 52.8377 71.0608 52.8377 71.2968V72.8014H52.3066C52.3066 72.0463 52.1147 71.5034 51.7313 71.1729C51.3477 70.8426 50.8021 70.6772 50.094 70.6772H47.2441V75.1025H51.8464V75.8991H47.2441V80.7669H50.271C50.9199 80.7669 51.4716 80.6224 51.9261 80.3332C52.3802 80.0442 52.7608 79.5161 53.0678 78.7489L53.5458 78.9259L53.0324 80.3244C52.9024 80.7021 52.7342 81.003 52.5279 81.2272C52.3213 81.4515 51.9762 81.5634 51.4924 81.5634H44.943Z" fill="#F2F4F2"/>
<path d="M58.7138 81.864C58.2298 81.864 57.7519 81.8168 57.28 81.7224C56.8079 81.6279 56.3773 81.4896 55.9878 81.3064C55.5984 81.1236 55.2886 80.8993 55.0585 80.6338C54.8284 80.3683 54.7134 80.0704 54.7134 79.74V77.6689H55.209C55.3976 78.8964 55.7782 79.7695 56.3507 80.2887C56.9229 80.8081 57.7048 81.0676 58.6961 81.0676C59.1444 81.0676 59.5369 81.0027 59.8733 80.8728C60.2095 80.743 60.469 80.5514 60.6521 80.2975C60.8349 80.0439 60.9264 79.7283 60.9264 79.3505C60.9264 78.8433 60.7641 78.4212 60.4397 78.0848C60.115 77.7486 59.6697 77.4095 59.1032 77.0671L56.926 75.7572C56.1234 75.2853 55.5569 74.8013 55.2267 74.3056C54.8962 73.8101 54.731 73.2378 54.731 72.5887C54.731 71.6566 55.0878 70.9189 55.802 70.376C56.5158 69.8334 57.4805 69.5618 58.6961 69.5618C59.1799 69.5618 59.6578 69.6091 60.1299 69.7034C60.6017 69.7979 61.0327 69.9365 61.4221 70.1193C61.8115 70.3024 62.1213 70.5237 62.3514 70.7831C62.5815 71.0428 62.6965 71.3438 62.6965 71.6859V73.7569H62.2009C62.0001 72.5297 61.6226 71.6566 61.0681 71.1372C60.5133 70.618 59.7875 70.3583 58.8908 70.3583C58.466 70.3583 58.097 70.4292 57.7845 70.5708C57.4717 70.7124 57.2327 70.9102 57.0676 71.1637C56.9022 71.4177 56.8198 71.7213 56.8198 72.0754C56.8198 72.5709 56.988 72.9723 57.3243 73.279C57.6606 73.5861 58.1059 73.9046 58.6607 74.2349L60.838 75.527C61.6403 75.9992 62.2275 76.4625 62.5992 76.9166C62.971 77.371 63.1568 77.9228 63.1568 78.5717C63.1568 79.5867 62.7732 80.3891 62.0062 80.979C61.239 81.569 60.1416 81.864 58.7138 81.864Z" fill="#F2F4F2"/>
<path d="M68.6459 81.864C68.1619 81.864 67.684 81.8168 67.2122 81.7224C66.74 81.6279 66.3094 81.4896 65.9199 81.3064C65.5306 81.1236 65.2208 80.8993 64.9907 80.6338C64.7605 80.3683 64.6455 80.0704 64.6455 79.74V77.6689H65.1411C65.3298 78.8964 65.7103 79.7695 66.2829 80.2887C66.8551 80.8081 67.637 81.0676 68.6283 81.0676C69.0766 81.0676 69.469 81.0027 69.8054 80.8728C70.1417 80.743 70.4011 80.5514 70.5842 80.2975C70.767 80.0439 70.8585 79.7283 70.8585 79.3505C70.8585 78.8433 70.6962 78.4212 70.3718 78.0848C70.0471 77.7486 69.6018 77.4095 69.0354 77.0671L66.8581 75.7572C66.0555 75.2853 65.4891 74.8013 65.1588 74.3056C64.8283 73.8101 64.6632 73.2378 64.6632 72.5887C64.6632 71.6566 65.02 70.9189 65.7341 70.376C66.448 69.8334 67.4127 69.5618 68.6283 69.5618C69.112 69.5618 69.5899 69.6091 70.062 69.7034C70.5339 69.7979 70.9648 69.9365 71.3542 70.1193C71.7436 70.3024 72.0534 70.5237 72.2835 70.7831C72.5136 71.0428 72.6287 71.3438 72.6287 71.6859V73.7569H72.1331C71.9322 72.5297 71.5548 71.6566 71.0002 71.1372C70.4454 70.618 69.7196 70.3583 68.8229 70.3583C68.3981 70.3583 68.0291 70.4292 67.7166 70.5708C67.4038 70.7124 67.1648 70.9102 66.9998 71.1637C66.8343 71.4177 66.7519 71.7213 66.7519 72.0754C66.7519 72.5709 66.9201 72.9723 67.2564 73.279C67.5927 73.5861 68.038 73.9046 68.5928 74.2349L70.7701 75.527C71.5725 75.9992 72.1596 76.4625 72.5314 76.9166C72.9031 77.371 73.0889 77.9228 73.0889 78.5717C73.0889 79.5867 72.7053 80.3891 71.9384 80.979C71.1711 81.569 70.0737 81.864 68.6459 81.864Z" fill="#F2F4F2"/>
<path d="M76.7337 81.5634C76.3205 81.5634 75.9991 81.4957 75.7691 81.3598C75.5389 81.2243 75.3766 80.9882 75.2822 80.6518C75.1877 80.3155 75.1406 79.8525 75.1406 79.2623V69.8806H77.4418V79.2623C77.4418 79.7933 77.5153 80.2211 77.6631 80.5457C77.8105 80.8704 78.1498 81.0324 78.6809 81.0324H78.8579V81.5634H76.7337Z" fill="#F2F4F2"/>
<path d="M85.5147 81.9172C84.3465 81.9172 83.3225 81.6428 82.4436 81.0941C81.5643 80.5454 80.8828 79.805 80.3991 78.8725C79.9151 77.9405 79.6733 76.8901 79.6733 75.7218C79.6733 74.5536 79.9151 73.5034 80.3991 72.571C80.8828 71.639 81.5643 70.8982 82.4436 70.3495C83.3225 69.8007 84.3465 69.5264 85.5147 69.5264C86.6946 69.5264 87.7185 69.8007 88.5858 70.3495C89.4533 70.8982 90.1286 71.639 90.6127 72.571C91.0964 73.5034 91.3384 74.5536 91.3384 75.7218C91.3384 76.8901 91.0964 77.9405 90.6127 78.8725C90.1286 79.805 89.4533 80.5454 88.5858 81.0941C87.7185 81.6428 86.6946 81.9172 85.5147 81.9172ZM85.5147 81.1206C86.2344 81.1206 86.845 80.9113 87.3468 80.4923C87.8482 80.0735 88.2318 79.4598 88.4973 78.6513C88.7629 77.8431 88.8956 76.8666 88.8956 75.7218C88.8956 74.5654 88.7629 73.5861 88.4973 72.7834C88.2318 71.9811 87.8482 71.3703 87.3468 70.9514C86.845 70.5326 86.2344 70.3229 85.5147 70.3229C84.8067 70.3229 84.2018 70.5326 83.7004 70.9514C83.1987 71.3703 82.8153 71.9811 82.5498 72.7834C82.2843 73.5861 82.1515 74.5654 82.1515 75.7218C82.1515 76.8666 82.2843 77.8431 82.5498 78.6513C82.8153 79.4598 83.1987 80.0735 83.7004 80.4923C84.2018 80.9113 84.8067 81.1206 85.5147 81.1206Z" fill="#F2F4F2"/>
<path d="M102.011 81.6165L94.5061 72.8014V81.5634H93.621V72.0048C93.621 71.5565 93.5119 71.179 93.2936 70.872C93.0751 70.5652 92.6533 70.4117 92.028 70.4117H91.9395V69.8806H93.1785C93.8512 69.8806 94.3969 69.9692 94.8159 70.1462C95.2346 70.3231 95.5798 70.5888 95.8514 70.9427L101.941 78.0232V69.8806H102.826V81.6165H102.011Z" fill="#F2F4F2"/>
<path d="M115.252 81.6343C114.863 81.6343 114.452 81.5838 114.022 81.4837C113.591 81.3836 113.178 81.1683 112.783 80.8377C112.387 80.5075 112.048 80.0058 111.765 79.333L111.358 78.3418H106.649L105.198 81.5634H104.277L109.499 69.8806H110.296L114.261 79.333C114.473 79.8525 114.733 80.2655 115.04 80.5722C115.346 80.8791 115.7 81.0562 116.102 81.1031V81.5457C116.007 81.5693 115.874 81.59 115.703 81.6076C115.532 81.6253 115.382 81.6343 115.252 81.6343ZM107.021 77.5452H111.021L109.074 72.9253L107.021 77.5452Z" fill="#F2F4F2"/>
<path d="M117.27 81.5634V72.1818C117.27 71.6507 117.196 71.2232 117.049 70.8985C116.901 70.5741 116.562 70.4117 116.031 70.4117H115.854V69.8806H117.978C118.391 69.8806 118.713 69.9515 118.943 70.0931C119.173 70.2347 119.335 70.4709 119.43 70.8011C119.524 71.1317 119.571 71.5918 119.571 72.1818V80.7669H125.678V81.5634H117.27Z" fill="#F2F4F2"/>
<path d="M134.21 81.5634V70.6772H132.953C132.327 70.6772 131.832 70.8338 131.466 71.1463C131.1 71.4591 130.917 72.0109 130.917 72.8014H130.386V71.2968C130.386 71.0608 130.427 70.8338 130.51 70.6153C130.593 70.397 130.743 70.22 130.961 70.0843C131.18 69.9488 131.489 69.8806 131.891 69.8806H140.21V70.6772H136.511V81.5634H134.21Z" fill="#F2F4F2"/>
<path d="M150.175 81.7404C149.762 81.7404 149.367 81.6577 148.989 81.4927C148.612 81.3274 148.243 81.0589 147.883 80.6873C147.523 80.3155 147.148 79.811 146.759 79.1737L144.989 76.2176H144.281V81.5634H141.962V72.1818C141.962 71.6507 141.888 71.2232 141.741 70.8985C141.593 70.5741 141.254 70.4117 140.723 70.4117H140.546V69.8806H145.431C145.75 69.8806 146.119 69.9014 146.538 69.9427C146.957 69.9842 147.379 70.0666 147.803 70.1905C148.228 70.3144 148.623 70.4944 148.989 70.7304C149.355 70.9665 149.65 71.2763 149.874 71.6597C150.098 72.0433 150.211 72.5182 150.211 73.0846C150.211 73.7102 150.072 74.2205 149.795 74.6158C149.517 75.0112 149.16 75.321 148.724 75.545C148.287 75.7693 147.827 75.9464 147.343 76.076L149.202 79.1737C149.65 79.9291 150.063 80.4306 150.441 80.6783C150.818 80.9262 151.137 81.0739 151.397 81.1209V81.5634C151.302 81.6105 151.134 81.652 150.892 81.6873C150.65 81.7227 150.411 81.7404 150.175 81.7404ZM144.281 75.5096H145.343C145.626 75.5096 145.909 75.4684 146.193 75.3857C146.476 75.3033 146.733 75.1675 146.963 74.9786C147.193 74.7899 147.379 74.5361 147.52 74.2174C147.662 73.8988 147.733 73.5094 147.733 73.0492C147.733 72.5889 147.665 72.2026 147.529 71.8897C147.393 71.5773 147.21 71.3233 146.98 71.1285C146.75 70.9339 146.496 70.7953 146.219 70.7127C145.942 70.6303 145.662 70.5888 145.378 70.5888C145.284 70.5888 145.145 70.5948 144.962 70.6065C144.779 70.6183 144.552 70.6537 144.281 70.7127V75.5096Z" fill="#F2F4F2"/>
<path d="M162.302 81.6343C161.912 81.6343 161.502 81.5838 161.072 81.4837C160.641 81.3836 160.228 81.1683 159.833 80.8377C159.437 80.5075 159.098 80.0058 158.815 79.333L158.408 78.3418H153.699L152.248 81.5634H151.327L156.549 69.8806H157.346L161.311 79.333C161.523 79.8525 161.782 80.2655 162.089 80.5722C162.396 80.8791 162.75 81.0562 163.152 81.1031V81.5457C163.057 81.5693 162.924 81.59 162.753 81.6076C162.582 81.6253 162.432 81.6343 162.302 81.6343ZM154.071 77.5452H158.071L156.124 72.9253L154.071 77.5452Z" fill="#F2F4F2"/>
<path d="M168.833 81.9172C167.594 81.9172 166.538 81.6517 165.664 81.1206C164.791 80.5896 164.127 79.8699 163.673 78.9611C163.219 78.0526 162.992 77.0317 162.992 75.8989C162.992 75.0021 163.136 74.1672 163.425 73.3941C163.714 72.6214 164.125 71.9456 164.656 71.3673C165.187 70.7893 165.806 70.3379 166.514 70.0132C167.222 69.6888 167.995 69.5264 168.833 69.5264C169.942 69.5264 170.836 69.6711 171.515 69.96C172.193 70.2494 172.698 70.5826 173.028 70.9602C173.264 71.2672 173.4 71.6624 173.435 72.1462C173.471 72.6302 173.488 73.1316 173.488 73.6508H172.957C172.733 72.577 172.323 71.7541 171.727 71.1814C171.131 70.6093 170.343 70.3229 169.364 70.3229C168.644 70.3229 167.989 70.4884 167.399 70.8186C166.809 71.149 166.34 71.7186 165.992 72.5267C165.644 73.3352 165.47 74.4592 165.47 75.8989C165.47 76.5714 165.541 77.2205 165.682 77.8459C165.824 78.4715 166.051 79.0319 166.364 79.5275C166.676 80.0232 167.078 80.4126 167.567 80.6958C168.057 80.979 168.656 81.1206 169.364 81.1206C170.178 81.1206 170.933 80.9054 171.63 80.4745C172.326 80.044 172.886 79.4155 173.311 78.5893L173.931 79.0673C173.376 80.047 172.698 80.7667 171.895 81.2269C171.093 81.687 170.072 81.9172 168.833 81.9172Z" fill="#F2F4F2"/>
<path d="M185.526 81.7404C185.089 81.7404 184.647 81.6873 184.198 81.5811C183.75 81.4749 183.281 81.2687 182.791 80.9615C182.301 80.6549 181.773 80.2066 181.207 79.6162L178.357 76.6426V81.5634H176.056L176.038 72.1818C176.038 71.6507 175.964 71.2232 175.817 70.8985C175.669 70.5741 175.33 70.4117 174.799 70.4117H174.622V69.8806H176.746C177.159 69.8806 177.481 69.9515 177.711 70.0931C177.941 70.2347 178.106 70.4709 178.207 70.8011C178.307 71.1317 178.357 71.5918 178.357 72.1818V75.545L181.419 71.7393C181.679 71.409 181.962 71.102 182.269 70.8188C182.576 70.5356 182.918 70.3086 183.296 70.1373C183.673 69.9665 184.092 69.8806 184.552 69.8806H185.791V70.5002C185.119 70.5002 184.511 70.5859 183.968 70.7569C183.425 70.928 182.953 71.2614 182.552 71.757L179.915 75.0141L184.004 79.2623C184.298 79.5809 184.62 79.879 184.968 80.1561C185.316 80.4336 185.656 80.6579 185.986 80.8289C186.317 81 186.594 81.1031 186.818 81.1386V81.5634C186.688 81.6105 186.508 81.652 186.278 81.6873C186.048 81.7227 185.797 81.7404 185.526 81.7404Z" fill="#F2F4F2"/>
<path d="M191.456 81.864C190.972 81.864 190.494 81.8168 190.022 81.7224C189.55 81.6279 189.12 81.4896 188.73 81.3064C188.341 81.1236 188.031 80.8993 187.801 80.6338C187.571 80.3683 187.456 80.0704 187.456 79.74V77.6689H187.951C188.14 78.8964 188.52 79.7695 189.093 80.2887C189.665 80.8081 190.447 81.0676 191.438 81.0676C191.887 81.0676 192.279 81.0027 192.616 80.8728C192.952 80.743 193.211 80.5514 193.394 80.2975C193.577 80.0439 193.669 79.7283 193.669 79.3505C193.669 78.8433 193.506 78.4212 193.182 78.0848C192.857 77.7486 192.412 77.4095 191.846 77.0671L189.668 75.7572C188.866 75.2853 188.299 74.8013 187.969 74.3056C187.638 73.8101 187.473 73.2378 187.473 72.5887C187.473 71.6566 187.83 70.9189 188.544 70.376C189.258 69.8334 190.223 69.5618 191.438 69.5618C191.922 69.5618 192.4 69.6091 192.872 69.7034C193.344 69.7979 193.775 69.9365 194.164 70.1193C194.554 70.3024 194.864 70.5237 195.094 70.7831C195.324 71.0428 195.439 71.3438 195.439 71.6859V73.7569H194.943C194.742 72.5297 194.365 71.6566 193.81 71.1372C193.256 70.618 192.53 70.3583 191.633 70.3583C191.208 70.3583 190.839 70.4292 190.527 70.5708C190.214 70.7124 189.975 70.9102 189.81 71.1637C189.644 71.4177 189.562 71.7213 189.562 72.0754C189.562 72.5709 189.73 72.9723 190.067 73.279C190.403 73.5861 190.848 73.9046 191.403 74.2349L193.58 75.527C194.383 75.9992 194.97 76.4625 195.341 76.9166C195.713 77.371 195.899 77.9228 195.899 78.5717C195.899 79.5867 195.515 80.3891 194.748 80.979C193.981 81.569 192.884 81.864 191.456 81.864Z" fill="#F2F4F2"/>
</svg>
