<svg width="39" height="31" viewBox="0 0 39 31" fill="none" xmlns="http://www.w3.org/2000/svg">
<path d="M26.1323 3.0166H1.99951M26.1323 15.077H11.0493M26.1323 27.1494H1.99951" stroke="#F2F4F2" stroke-width="3.48069" stroke-linecap="round" stroke-linejoin="round"/>
<path fill-rule="evenodd" clip-rule="evenodd" d="M35.1856 6.0332C33.6773 6.0332 32.169 4.5249 32.169 3.0166C32.169 1.5083 33.6773 0 35.1856 0C36.6939 0 38.1992 1.5083 38.1992 3.0166C38.1992 4.5249 36.6939 6.0332 35.1856 6.0332ZM35.1856 18.0996C33.6773 18.0996 32.169 16.5913 32.169 15.083C32.169 13.5747 33.6773 12.0664 35.1856 12.0664C36.6939 12.0664 38.1992 13.5747 38.1992 15.083C38.1992 16.5913 36.6939 18.0996 35.1856 18.0996ZM35.1856 30.166C33.6773 30.166 32.169 28.6577 32.169 27.1494C32.169 25.6411 33.6773 24.1328 35.1856 24.1328C36.6939 24.1328 38.1992 25.6411 38.1992 27.1494C38.1992 28.6577 36.6939 30.166 35.1856 30.166Z" fill="#F2F4F2"/>
</svg>
