<svg width="10" height="11" viewBox="0 0 10 11" fill="none" xmlns="http://www.w3.org/2000/svg">
<path d="M2.25429 3.33997H1.74733C1.47842 3.33997 1.22052 3.44679 1.03037 3.63694C0.840223 3.82709 0.733398 4.08498 0.733398 4.3539V8.91658C0.733398 9.18549 0.840223 9.44338 1.03037 9.63353C1.22052 9.82368 1.47842 9.93051 1.74733 9.93051H6.31001C6.57892 9.93051 6.83682 9.82368 7.02697 9.63353C7.21711 9.44338 7.32394 9.18549 7.32394 8.91658V8.40961" stroke="white" stroke-width="1.01393" stroke-linecap="round" stroke-linejoin="round"/>
<path d="M6.81731 2.326L8.3382 3.84689M9.04035 3.12953C9.24001 2.92987 9.35219 2.65906 9.35219 2.37669C9.35219 2.09432 9.24001 1.82352 9.04035 1.62385C8.84068 1.42418 8.56988 1.31201 8.2875 1.31201C8.00513 1.31201 7.73433 1.42418 7.53466 1.62385L3.26855 5.87475V7.39564H4.78945L9.04035 3.12953Z" stroke="white" stroke-width="1.01393" stroke-linecap="round" stroke-linejoin="round"/>
</svg>
