<svg width="85" height="73" viewBox="0 0 85 73" fill="none" xmlns="http://www.w3.org/2000/svg">
<path d="M7.5948 59.1711C7.90305 57.7701 8.24883 56.2044 8.59462 54.6387C8.64994 54.3926 8.6618 54.1267 8.76455 53.9025C9.27828 52.7773 8.8831 52.0431 7.94059 51.3188C6.56535 50.2591 5.31262 49.0367 3.99863 47.8976C3.55602 47.5146 3.33472 47.0641 3.51651 46.4966C3.68446 45.9747 4.11126 45.7941 4.63488 45.7485C6.52385 45.5818 8.40888 45.3675 10.3018 45.2325C11.1021 45.175 11.5941 44.9666 11.9082 44.1133C12.5662 42.3293 13.4001 40.6128 14.1371 38.8566C14.3643 38.3168 14.6903 37.9497 15.291 37.9457C15.8759 37.9417 16.192 38.3307 16.4054 38.8248C17.1918 40.6584 17.9901 42.4881 18.7528 44.3316C18.9662 44.8456 19.2191 45.1234 19.8317 45.1611C21.6791 45.2801 23.5187 45.4806 25.3623 45.6512C25.5223 45.6651 25.6824 45.675 25.8404 45.6969C26.3542 45.7643 26.8561 45.8715 27.0418 46.449C27.2374 47.0562 26.9766 47.5087 26.5261 47.9036C24.9928 49.245 23.4713 50.6044 21.9301 51.9399C21.5804 52.2435 21.4737 52.5174 21.5922 52.9996C22.0704 54.9126 22.4952 56.8374 22.92 58.7643C23.0485 59.3497 23.1808 59.9967 22.5604 60.3935C22.017 60.7388 21.4796 60.5404 20.956 60.2249C19.231 59.185 17.4843 58.1809 15.7593 57.1391C15.4214 56.9347 15.1804 56.9208 14.8306 57.1351C13.0325 58.2305 11.2107 59.2882 9.40474 60.3717C8.97794 60.6277 8.55312 60.717 8.10854 60.465C7.68174 60.2189 7.56121 59.8101 7.5948 59.1711Z" fill="#F4A01E"/>
<path d="M34.142 68.2255C34.4503 66.8244 34.7961 65.2587 35.1419 63.693C35.1972 63.447 35.209 63.181 35.3118 62.9568C35.8255 61.8316 35.4303 61.0974 34.4878 60.3731C33.1126 59.3134 31.8599 58.091 30.5459 56.9519C30.1033 56.5689 29.882 56.1185 30.0637 55.5509C30.2317 55.029 30.6585 54.8484 31.1821 54.8028C33.0711 54.6361 34.9561 54.4218 36.8491 54.2868C37.6493 54.2293 38.1413 54.0209 38.4555 53.1676C39.1135 51.3836 39.9473 49.6671 40.6843 47.9109C40.9115 47.3711 41.2376 47.004 41.8382 47C42.4231 46.9961 42.7393 47.385 42.9527 47.8791C43.7391 49.7127 44.5373 51.5424 45.3001 53.3859C45.5135 53.8999 45.7664 54.1777 46.3789 54.2154C48.2264 54.3345 50.066 54.5349 51.9095 54.7056C52.0695 54.7194 52.2296 54.7294 52.3877 54.7512C52.9014 54.8187 53.4033 54.9258 53.589 55.5033C53.7846 56.1105 53.5238 56.563 53.0733 56.9579C51.54 58.2994 50.0185 59.6587 48.4773 60.9942C48.1276 61.2978 48.0209 61.5717 48.1394 62.0539C48.6176 63.9669 49.0424 65.8918 49.4673 67.8186C49.5957 68.4041 49.7281 69.051 49.1076 69.4479C48.5643 69.7931 48.0268 69.5947 47.5032 69.2792C45.7782 68.2393 44.0315 67.2352 42.3065 66.1934C41.9687 65.989 41.7276 65.9751 41.3779 66.1894C39.5798 67.2848 37.758 68.3425 35.952 69.426C35.5252 69.682 35.1004 69.7713 34.6558 69.5193C34.229 69.2732 34.1085 68.8644 34.142 68.2255Z" fill="#F4A01E"/>
<path d="M31.8318 70.572C32.2313 68.7532 32.6794 66.7205 33.1275 64.6879C33.1992 64.3685 33.2145 64.0232 33.3477 63.7321C34.0135 62.2714 33.5013 61.3182 32.2799 60.3779C30.4977 59.0022 28.8743 57.4153 27.1715 55.9365C26.5979 55.4393 26.3111 54.8545 26.5467 54.1177C26.7643 53.4402 27.3174 53.2058 27.996 53.1465C30.4439 52.9301 32.8868 52.6519 35.3399 52.4767C36.3769 52.402 37.0145 52.1315 37.4217 51.0237C38.2743 48.7077 39.3549 46.4793 40.31 44.1994C40.6045 43.4986 41.0245 43.022 41.8029 43.0194C42.5608 43.0143 42.9705 43.5192 43.2471 44.1607C44.2662 46.5411 45.3007 48.9164 46.2891 51.3097C46.5657 51.9769 46.8934 52.3376 47.6872 52.3865C50.0814 52.5411 52.4653 52.8013 54.8544 53.0229C55.0618 53.0409 55.2692 53.0538 55.4741 53.0821C56.1398 53.1697 56.7902 53.3088 57.0309 54.0585C57.2844 54.8468 56.9464 55.4342 56.3626 55.9468C54.373 57.6884 52.4039 59.4531 50.4066 61.1868C49.9534 61.581 49.8151 61.9365 49.9687 62.5625C50.5884 65.046 51.1389 67.5449 51.6895 70.0464C51.8559 70.8064 52.0275 71.6462 51.2234 72.1615C50.5193 72.6097 49.8228 72.3521 49.1442 71.9425C46.9088 70.5926 44.6452 69.289 42.4098 67.9365C41.9719 67.6711 41.6595 67.6531 41.2063 67.9313C38.8761 69.3534 36.5152 70.7265 34.1748 72.1331C33.6217 72.4655 33.0711 72.5814 32.495 72.2542C31.9445 71.9322 31.7857 71.4015 31.8318 70.572ZM48.6602 68.7042C48.8011 68.4157 48.7115 68.2147 48.6654 68.0164C48.2531 66.1873 47.8562 64.3581 47.4183 62.5368C47.1316 61.344 47.403 60.3908 48.3811 59.6051C49.3055 58.8631 50.1761 58.049 51.0596 57.2581C51.7048 56.6811 52.4116 56.1632 53.0261 55.3878C50.847 55.1869 48.7934 54.9756 46.7347 54.8159C45.6233 54.7309 44.8449 54.262 44.4019 53.2032C43.6926 51.5003 42.95 49.8129 42.2049 48.1255C42.0846 47.8524 42.082 47.4763 41.6877 47.3604C41.0885 48.7386 40.4739 50.0911 39.9106 51.4668C38.533 54.821 38.7532 54.6716 35.0121 54.9936C33.5577 55.1199 32.1032 55.277 30.6513 55.4213C30.6616 55.7201 30.8229 55.818 30.9535 55.9314C32.4079 57.1989 33.8547 58.4767 35.3245 59.7261C36.1567 60.4346 36.4537 61.2976 36.2156 62.3564C35.9109 63.7193 35.5857 65.0795 35.3066 66.45C35.1606 67.1585 34.8918 67.8541 34.9097 68.6063C35.2272 68.6398 35.4064 68.462 35.6036 68.3435C37.0836 67.4676 38.5995 66.6458 40.0284 65.69C41.2882 64.8476 42.4046 64.912 43.6465 65.7107C45.2802 66.7592 46.983 67.7072 48.6602 68.7042Z" fill="#1E1B1C"/>
<path d="M58.9847 61.4187C59.3842 59.5999 59.8323 57.5673 60.2804 55.5346C60.3521 55.2152 60.3674 54.87 60.5006 54.5789C61.1663 53.1182 60.6542 52.165 59.4328 51.2247C57.6506 49.849 56.0272 48.262 54.3243 46.7833C53.7508 46.2861 53.464 45.7013 53.6996 44.9645C53.9172 44.2869 54.4703 44.0525 55.1489 43.9932C57.5968 43.7768 60.0397 43.4986 62.4928 43.3234C63.5298 43.2487 64.1674 42.9782 64.5745 41.8705C65.4272 39.5544 66.5078 37.326 67.4629 35.0461C67.7574 34.3454 68.1773 33.8688 68.9558 33.8662C69.7137 33.861 70.1234 34.366 70.4 35.0074C71.4191 37.3879 72.4536 39.7631 73.442 42.1564C73.7185 42.8237 74.0463 43.1843 74.8401 43.2333C77.2343 43.3878 79.6182 43.648 82.0073 43.8696C82.2147 43.8876 82.4221 43.9005 82.627 43.9288C83.2927 44.0164 83.9431 44.1555 84.1838 44.9052C84.4373 45.6935 84.0993 46.2809 83.5155 46.7936C81.5259 48.5351 79.5568 50.2998 77.5595 52.0336C77.1063 52.4277 76.968 52.7833 77.1216 53.4093C77.7413 55.8927 78.2918 58.3917 78.8424 60.8931C79.0088 61.6531 79.1804 62.493 78.3763 63.0082C77.6722 63.4565 76.9757 63.1989 76.2971 62.7892C74.0617 61.4393 71.7981 60.1357 69.5626 58.7832C69.1248 58.5179 68.8124 58.4999 68.3592 58.7781C66.029 60.2002 63.6681 61.5733 61.3277 62.9799C60.7746 63.3122 60.224 63.4281 59.6479 63.101C59.0974 62.7789 58.9412 62.2482 58.9847 61.4187ZM75.8157 59.5509C75.9565 59.2624 75.8669 59.0615 75.8208 58.8631C75.4086 57.034 75.0117 55.2049 74.5738 53.3835C74.287 52.1907 74.5584 51.2375 75.5366 50.4518C76.461 49.7098 77.3316 48.8958 78.215 48.1049C78.8603 47.5278 79.567 47.01 80.1816 46.2345C78.0025 46.0336 75.9489 45.8224 73.8901 45.6626C72.7788 45.5776 72.0004 45.1087 71.5574 44.0499C70.8481 42.3471 70.1055 40.6596 69.3604 38.9722C69.24 38.6991 69.2374 38.323 68.8431 38.2071C68.2439 39.5854 67.6294 40.9379 67.066 42.3136C65.6884 45.6678 65.9086 45.5184 62.1676 45.8404C60.7131 45.9666 59.2587 46.1238 57.8068 46.268C57.817 46.5669 57.9784 46.6648 58.109 46.7781C59.5634 48.0456 61.0102 49.3234 62.48 50.5729C63.3122 51.2813 63.6092 52.1444 63.371 53.2032C63.0663 54.566 62.7411 55.9262 62.462 57.2968C62.3161 58.0052 62.0472 58.7008 62.0651 59.4531C62.3826 59.4865 62.5619 59.3088 62.7591 59.1903C64.2391 58.3144 65.755 57.4926 67.1838 56.5368C68.4437 55.6944 69.5601 55.7588 70.802 56.5574C72.4357 57.6059 74.1359 58.554 75.8157 59.5509Z" fill="#1E1B1C"/>
<path d="M5.36775 61.4187C5.76721 59.5999 6.21532 57.5673 6.66343 55.5346C6.73512 55.2152 6.75049 54.87 6.88364 54.5789C7.5494 53.1182 7.03728 52.165 5.81586 51.2247C4.03366 49.849 2.41022 48.262 0.707405 46.7833C0.133824 46.2861 -0.152966 45.7013 0.0826115 44.9645C0.300265 44.2869 0.853361 44.0525 1.53193 43.9932C3.97989 43.7768 6.42273 43.4986 8.87581 43.3234C9.91286 43.2487 10.5505 42.9782 10.9576 41.8705C11.8103 39.5544 12.8909 37.326 13.846 35.0461C14.1405 34.3454 14.5604 33.8688 15.3388 33.8662C16.0968 33.861 16.5065 34.366 16.783 35.0074C17.8022 37.3879 18.8367 39.7631 19.8251 42.1564C20.1016 42.8237 20.4294 43.1843 21.2232 43.2333C23.6173 43.3878 26.0013 43.648 28.3904 43.8696C28.5978 43.8876 28.8052 43.9005 29.01 43.9288C29.6758 44.0164 30.3262 44.1555 30.5669 44.9052C30.8204 45.6935 30.4824 46.2809 29.8986 46.7936C27.909 48.5351 25.9398 50.2998 23.9425 52.0336C23.4893 52.4277 23.351 52.7833 23.5047 53.4093C24.1244 55.8927 24.6749 58.3917 25.2254 60.8931C25.3919 61.6531 25.5634 62.493 24.7594 63.0082C24.0552 63.4565 23.3587 63.1989 22.6802 62.7892C20.4447 61.4393 18.1811 60.1357 15.9457 58.7832C15.5078 58.5179 15.1954 58.4999 14.7422 58.7781C12.412 60.2002 10.0511 61.5733 7.71072 62.9799C7.15763 63.3122 6.60709 63.4281 6.03095 63.101C5.48042 62.7789 5.32422 62.2482 5.36775 61.4187ZM22.1988 59.5509C22.3396 59.2624 22.25 59.0615 22.2039 58.8631C21.7916 57.034 21.3947 55.2049 20.9569 53.3835C20.6701 52.1907 20.9415 51.2375 21.9196 50.4518C22.844 49.7098 23.7147 48.8958 24.5981 48.1049C25.2433 47.5278 25.9501 47.01 26.5646 46.2345C24.3855 46.0336 22.3319 45.8224 20.2732 45.6626C19.1619 45.5776 18.3834 45.1087 17.9404 44.0499C17.2311 42.3471 16.4886 40.6596 15.7434 38.9722C15.6231 38.6991 15.6205 38.323 15.2262 38.2071C14.627 39.5854 14.0124 40.9379 13.4491 42.3136C12.0715 45.6678 12.2917 45.5184 8.55061 45.8404C7.09617 45.9666 5.64174 46.1238 4.18986 46.268C4.2001 46.5669 4.36142 46.6648 4.49201 46.7781C5.94645 48.0456 7.39321 49.3234 8.86301 50.5729C9.69521 51.2813 9.99224 52.1444 9.75411 53.2032C9.44939 54.566 9.12419 55.9262 8.84508 57.2968C8.69913 58.0052 8.43026 58.7008 8.44818 59.4531C8.7657 59.4865 8.94495 59.3088 9.14211 59.1903C10.6222 58.3144 12.1381 57.4926 13.5669 56.5368C14.8267 55.6944 15.9431 55.7588 17.185 56.5574C18.8187 57.6059 20.519 58.554 22.1988 59.5509Z" fill="#1E1B1C"/>
<path d="M24.2959 34.7962C23.6225 33.9667 22.949 33.2737 22.0656 32.8151C21.3435 32.439 21.8172 31.9701 22.0758 31.5399C24.365 27.7554 27.7323 25.3287 31.7678 23.7443C32.3926 23.4995 33.0276 23.2883 33.8394 22.9946C32.3081 21.4592 30.9971 19.9367 30.1162 18.0586C26.3316 9.99508 32.3747 0.1411 41.2268 0.00198498C46.7398 -0.085606 51.2849 2.73019 53.4026 7.54769C55.5356 12.3935 54.5523 17.7984 50.8061 21.8302C50.6601 21.9873 50.55 22.1883 50.3785 22.3042C49.4771 22.9225 49.9329 23.1492 50.6473 23.3759C54.6598 24.646 58.0066 26.8898 60.5826 30.2595C60.6876 30.396 60.7925 30.53 60.8898 30.6691C62.0319 32.2921 62.0472 32.3127 60.5467 33.606C60.073 34.013 59.8016 34.9611 59.2536 34.8245C58.8081 34.7138 58.5648 33.825 58.2089 33.2943C55.3896 29.0616 51.2311 26.9414 46.4248 26.0912C40.5508 25.0556 34.879 25.7048 29.6835 28.9328C28.5542 29.6335 27.5607 30.5042 26.6594 31.4832C25.7657 32.4544 25.0974 33.5957 24.2959 34.7962ZM41.8004 3.60352C36.7354 3.58033 32.6743 7.58891 32.6333 12.6537C32.5898 17.9066 36.5767 21.9822 41.7671 21.9899C46.7961 21.9976 50.8547 17.9453 50.888 12.8804C50.9239 7.73833 46.8986 3.62928 41.8004 3.60352Z" fill="#1E1B1C"/>
</svg>
